<?xml version="1.0" encoding="UTF-8" standalone="no"?>
<!-- Created with Inkscape (http://www.inkscape.org/) -->

<svg
   version="1.1"
   id="svg758"
   width="1600"
   height="1600"
   viewBox="0 0 1600 1600"
   sodipodi:docname="bandits-wild-west-clip-art-pdv.svg"
   inkscape:version="1.2 (dc2aedaf03, 2022-05-15)"
   xmlns:inkscape="http://www.inkscape.org/namespaces/inkscape"
   xmlns:sodipodi="http://sodipodi.sourceforge.net/DTD/sodipodi-0.dtd"
   xmlns="http://www.w3.org/2000/svg"
   xmlns:svg="http://www.w3.org/2000/svg">
  <defs
     id="defs762">
    <clipPath
       clipPathUnits="userSpaceOnUse"
       id="clipPath774">
      <path
         d="M 0,1200 H 1200 V 0 H 0 Z"
         id="path772" />
    </clipPath>
  </defs>
  <sodipodi:namedview
     id="namedview760"
     pagecolor="#ffffff"
     bordercolor="#000000"
     borderopacity="0.25"
     inkscape:showpageshadow="2"
     inkscape:pageopacity="0.0"
     inkscape:pagecheckerboard="0"
     inkscape:deskcolor="#d1d1d1"
     showgrid="false"
     inkscape:zoom="0.523125"
     inkscape:cx="800"
     inkscape:cy="800.95579"
     inkscape:window-width="1920"
     inkscape:window-height="1017"
     inkscape:window-x="-8"
     inkscape:window-y="-8"
     inkscape:window-maximized="1"
     inkscape:current-layer="g766">
    <inkscape:page
       x="0"
       y="0"
       id="page764"
       width="1600"
       height="1600" />
  </sodipodi:namedview>
  <g
     id="g766"
     inkscape:groupmode="layer"
     inkscape:label="Page 1"
     transform="matrix(1.3333333,0,0,-1.3333333,0,1600)">
    <g
       id="g768">
      <g
         id="g770"
         clip-path="url(#clipPath774)">
        <g
           id="g776"
           transform="translate(1134.791,728.0454)">
          <path
             d="m 0,0 c -9.813,13.045 -38.385,2.31 -80.691,-1.7 -5.212,3.336 -8.844,7.445 -8.906,7.511 -15.82,20.861 -13.004,78.487 -22.269,84.235 -10.044,6.237 -32.901,40.175 -59.223,48.488 -26.319,8.313 -89.354,-31.17 -102.515,-38.79 -12.367,-7.158 -20.456,-62.643 -34.031,-74.475 -2.184,-1.477 -5.033,-3.006 -8.343,-3.919 -4.05,1.34 -8.227,2.763 -12.578,4.282 0,0 -48.14,32.321 -66.612,18.007 -18.087,-14.018 1.249,-87.915 63.521,-110.815 l 0.335,-4.391 c -44.252,-8.318 -86.077,-38.05 -112.689,-74.586 20.209,-8.277 85.419,-40.984 74.81,-45.676 -18.703,-8.273 -62.341,-26.361 -62.341,-38.138 0,-11.774 101.335,-232.043 101.335,-232.043 l 145.254,-21.473 116.495,21.473 c 0,0 64.523,181.779 57.595,199.095 -6.924,17.317 -66.033,54.42 -66.033,54.42 l 54.722,44.334 c 0,0 -18.685,50.327 -66.992,72.578 l 9.873,17.544 C -63.819,-68.351 26.624,-33.279 0,0"
             style="fill:#ed1c24;fill-opacity:1;fill-rule:nonzero;stroke:none"
             id="path778" />
        </g>
        <g
           id="g780"
           transform="translate(1157.8809,731.7407)">
          <path
             d="m 0,0 c -17.379,21.724 -37.795,6.775 -80.693,-1.7 -5.212,3.336 -8.844,7.443 -8.904,7.51 -15.822,20.86 -13.004,78.488 -22.269,84.234 -10.046,6.236 -32.903,40.175 -59.224,48.488 -26.32,8.313 -89.353,-31.168 -102.515,-38.79 -12.367,-7.158 -20.455,-62.641 -34.03,-74.473 -2.184,-1.479 -5.033,-3.006 -8.343,-3.921 -4.05,1.339 -8.229,2.763 -12.578,4.282 0,0 -48.141,32.322 -66.612,18.007 -18.087,-14.018 1.249,-87.915 63.519,-110.815 l 0.336,-4.391 c -44.251,-8.318 -86.076,-38.05 -112.688,-74.584 20.207,-8.279 85.419,-40.986 74.81,-45.676 -18.703,-8.275 -62.341,-26.363 -62.341,-38.138 0,-11.776 101.333,-232.045 101.333,-232.045 l 145.257,-21.471 116.494,21.471 c 0,0 64.521,181.781 57.595,199.097 -6.926,17.317 -66.035,54.42 -66.035,54.42 l 54.723,44.332 c 0,0 -18.686,50.327 -66.991,72.578 l 9.873,17.546 C -63.819,-68.351 26.624,-33.281 0,0"
             style="fill:#ffffff;fill-opacity:1;fill-rule:nonzero;stroke:none"
             id="path782" />
        </g>
        <g
           id="g784"
           transform="translate(1067.4492,653.4673)">
          <path
             d="m 0,0 v 0 l -5.255,-11.722 -37.057,3.03 c -7.61,5.213 -17.358,10.879 -30.034,16.66 -5.441,2.478 -11.243,3.989 -17.301,4.771 -0.909,11.984 -2.57,32.185 -3.938,39.62 2.993,2.614 5.194,6.62 6.528,9.547 l 17.784,-2.938 c 0.419,-4.661 1.262,-12.877 2.411,-18.607 h -0.002 c 0,0 0.004,-0.015 0.006,-0.021 0.322,-1.613 0.67,-3.024 1.039,-4.101 1.454,-5.688 4.039,-15.638 5.248,-19.267 1.732,-5.194 33.25,-12.47 30.131,-10.392 -3.117,2.08 -14.545,8.316 -18.702,13.118 -4.155,4.808 15.239,0.39 17.663,0.39 2.424,0 13.508,-2.076 0,3.37 -12.088,4.88 -21.125,10.402 -22.894,11.513 0.211,3.735 2.214,8.034 10.311,8.034 -0.231,-5.946 4.502,-9.294 4.502,-9.294 0,0 5.354,-2.941 11.672,-2.012 3.925,0.577 2.988,8.662 11.995,3.485 2.667,-1.534 4.625,-2.942 6.005,-4.058 -0.37,-5.942 -0.728,-10.283 2.654,-5.844 2.949,3.874 4.663,11.697 5.62,18.161 C 1.522,40.365 6.539,32.399 7.247,22.699 4.956,15.397 2.354,7.195 0,0 m 13.323,-82.354 c 0.984,-12.732 0.694,-45.024 -45.715,-60.26 -46.409,-15.24 -78.628,-83.773 -74.932,-125.795 -47.736,11.217 -91.071,86.707 -114.296,130.104 5.556,-8.934 11.929,-18.981 18.83,-29.369 -0.094,5.486 0.477,10.869 1.483,16.082 2.396,12.14 6.943,23.435 12.645,33.914 5.72,10.472 12.511,20.267 20.379,29.086 3.94,4.396 8.125,8.582 12.721,12.283 1.183,0.889 2.295,1.848 3.533,2.66 l 1.816,1.258 1.891,1.146 c 2.545,1.457 5.218,2.789 8.094,3.366 -2.799,-0.858 -5.28,-2.422 -7.622,-4.09 l -1.729,-1.299 -1.651,-1.402 c -1.12,-0.907 -2.123,-1.961 -3.181,-2.934 -4.114,-4.043 -7.779,-8.524 -11.179,-13.166 -6.785,-9.307 -12.391,-19.43 -16.83,-29.912 -4.435,-10.475 -7.567,-21.477 -8.603,-32.397 -0.89,-9.318 1.933,-29.097 5.821,-40.017 24.516,-33.836 52.074,-64.653 72.681,-65.959 -2.645,30.092 13.424,71.078 39.803,97.517 -0.193,7.065 -0.622,14.221 -1.996,21.285 l -0.486,2.952 c -0.19,0.976 -0.433,1.945 -0.648,2.918 l -1.34,5.859 c -1.118,3.846 -2.12,7.76 -3.502,11.551 -2.601,7.646 -5.723,15.183 -9.433,22.457 -3.695,7.285 -7.852,14.383 -12.701,21.051 5.739,-5.93 10.911,-12.452 15.675,-19.272 4.781,-6.818 9.046,-14.035 12.839,-21.539 1.979,-3.723 3.594,-7.617 5.328,-11.486 l 2.275,-5.942 c 0.372,-0.996 0.77,-1.984 1.118,-2.99 l 0.958,-3.049 c 2.084,-6.068 2.746,-8.964 3.528,-13.656 7.474,5.625 15.546,10.065 24.084,12.865 2.535,0.832 4.911,1.725 7.175,2.655 1.074,7.486 0.704,15.181 -1.558,22.57 -2.517,8.439 -7.17,16.375 -12.904,23.56 -5.74,7.215 -12.522,13.727 -19.583,19.954 l -10.712,9.289 c -3.558,3.115 -7.133,6.279 -10.213,9.878 3.414,-3.28 7.238,-6.044 11.072,-8.792 l 11.583,-8.209 c 7.691,-5.555 15.243,-11.481 22.008,-18.453 6.743,-6.95 12.728,-15.042 16.582,-24.44 3.106,-7.428 4.756,-12.895 4.792,-19.93 5.548,3.262 10.002,6.844 13.581,10.573 -0.805,9.728 -1.389,24.732 -3.515,32.048 -2.422,8.391 -6.375,16.336 -12.697,22.471 -6.196,6.225 -14.06,10.838 -22.306,14.497 l -6.288,2.577 c -2.133,0.768 -4.299,1.465 -6.449,2.201 -1.079,0.356 -2.153,0.744 -3.241,1.074 l -3.291,0.919 -6.592,1.839 6.717,-1.334 3.363,-0.668 c 1.116,-0.247 2.219,-0.558 3.329,-0.831 2.215,-0.575 4.444,-1.108 6.656,-1.72 l 6.561,-2.126 c 8.647,-3.082 17.167,-7.182 24.381,-13.395 0.449,-0.382 0.939,-0.728 1.356,-1.152 l 1.245,-1.277 2.492,-2.573 c 0.793,-0.89 1.477,-1.877 2.219,-2.814 0.698,-0.969 1.537,-1.86 2.107,-2.91 1.214,-2.055 2.587,-4.055 3.528,-6.242 l 1.549,-3.237 1.273,-3.322 c 2.758,-7.369 4.479,-14.928 5.984,-22.412 6.169,11.849 6.014,23.48 5.511,29.994 -1.227,15.92 -9.404,32.106 -15.805,39.684 6.103,-2.887 18.873,-23.543 20.432,-43.766 m -27.244,-137.912 c -0.943,-9.438 -2.217,-18.854 -3.953,-28.19 -1.634,-9.363 -3.853,-18.609 -6.218,-27.82 -2.47,-9.181 -5.266,-18.283 -8.397,-27.275 -6.338,-17.949 -14.182,-35.405 -23.653,-51.926 -1.169,-2.072 -2.353,-4.135 -3.617,-6.152 -1.241,-2.032 -2.467,-4.069 -3.744,-6.075 l -3.982,-5.92 -1.993,-2.953 -2.095,-2.884 -4.248,-5.715 c -1.486,-1.858 -2.95,-3.725 -4.459,-5.551 -2.935,-3.719 -6.214,-7.172 -9.382,-10.674 1.233,2.027 2.516,4.012 3.767,6.012 l 1.919,2.967 1.816,3.031 c 1.198,2.029 2.446,4.019 3.673,6.021 l 3.486,6.12 1.769,3.037 1.678,3.088 3.348,6.171 c 2.068,4.204 4.374,8.266 6.333,12.516 8.241,16.773 15.291,34.072 21.551,51.654 3.222,8.764 5.987,17.688 8.675,26.637 2.755,8.934 5.103,17.99 7.457,27.055 2.249,9.09 4.382,18.226 6.255,27.431 1.954,9.198 3.65,18.45 5.159,27.793 0.321,-9.474 -0.3,-18.953 -1.145,-28.398 m -146.952,-93.133 c -21.283,27.611 -38.562,58.205 -52.313,90.152 -13.742,31.975 -24.053,65.358 -30.793,99.407 -3.313,17.035 -5.796,34.242 -6.881,51.576 -0.481,8.668 -0.762,17.355 -0.327,26.046 0.228,4.343 0.582,8.689 1.285,12.997 0.406,2.149 0.804,4.295 1.474,6.385 0.666,2.048 1.452,4.225 3.068,5.697 0.004,0.004 0.005,0.01 0.011,0.014 -0.006,-0.008 -0.007,-0.016 -0.013,-0.021 -0.644,-0.862 -1.103,-1.803 -1.358,-2.832 -0.161,-0.501 -0.294,-1.009 -0.383,-1.536 -0.098,-0.521 -0.224,-1.028 -0.275,-1.561 -0.328,-2.088 -0.387,-4.225 -0.45,-6.343 -0.095,-4.142 0.1,-8.294 0.436,-12.435 0.847,-0.11 1.741,-0.178 2.669,-0.186 0.031,0 0.061,-0.004 0.091,-0.004 1.068,-0.02 2.196,0.066 3.303,0.103 1.133,0.125 2.264,0.211 3.408,0.364 4.59,0.625 9.26,1.655 13.906,2.885 9.302,2.463 18.554,5.568 27.759,8.821 9.212,3.255 18.385,6.708 27.626,10.021 4.623,1.648 9.262,3.27 13.963,4.714 2.348,0.73 4.726,1.378 7.123,1.937 1.209,0.246 2.414,0.499 3.642,0.63 1.22,0.155 2.47,0.171 3.674,-0.053 -1.224,0.121 -2.437,0.007 -3.628,-0.247 -1.197,-0.228 -2.366,-0.577 -3.533,-0.919 -2.323,-0.745 -4.612,-1.577 -6.876,-2.493 -4.534,-1.811 -9,-3.8 -13.456,-5.82 -8.907,-4.046 -17.764,-8.243 -26.728,-12.27 -8.97,-4.026 -18.025,-7.931 -27.429,-11.274 -4.705,-1.667 -9.514,-3.167 -14.561,-4.287 -1.263,-0.277 -2.564,-0.489 -3.85,-0.736 -0.344,-0.042 -0.684,-0.087 -1.025,-0.132 -0.985,-0.129 -1.97,-0.262 -2.994,-0.33 -1.195,-0.082 -1.692,-0.178 -2.134,-0.192 0.13,-1.185 0.253,-2.367 0.404,-3.549 0.565,-4.222 1.169,-8.437 1.9,-12.636 0.645,-3.905 1.347,-7.799 2.087,-11.686 0.209,-1.109 0.427,-2.215 0.648,-3.32 3.086,4.47 6.914,8.074 10.911,11.209 8.891,6.812 18.706,11.594 28.646,15.709 9.972,4.076 20.167,7.371 30.458,10.218 10.296,2.824 20.686,5.246 31.16,7.123 -10.298,-2.662 -20.444,-5.86 -30.425,-9.435 -9.974,-3.59 -19.784,-7.613 -29.188,-12.318 -9.357,-4.723 -18.453,-10.116 -25.984,-16.875 -3.715,-3.385 -7.007,-7.153 -9.153,-11.247 -2.157,-4.089 -2.998,-8.412 -2.261,-12.558 l -0.258,-0.031 c 0.99,-4.272 2.024,-8.53 3.1,-12.776 0.333,-1.312 0.665,-2.627 1.004,-3.939 8.57,-32.93 19.523,-65.188 32.927,-96.338 13.43,-31.133 29.328,-61.193 48.406,-89.227 19.047,-28.056 41.382,-53.943 67.246,-76.742 -29.366,18.184 -54.791,42.809 -76.059,70.34 m -55.884,413.798 C -192.447,91.359 -58.33,67.171 2.194,79.02 l 3.058,-3.295 c -17.808,-3.199 -39.33,-5.121 -65.823,-2.994 -83.802,6.729 -114.939,10.849 -159.157,24.998 z m 24.822,6.032 c 0,-0.845 -0.689,-1.534 -1.533,-1.534 -0.846,0 -1.534,0.689 -1.534,1.534 0,0.846 0.688,1.534 1.534,1.534 0.844,0 1.533,-0.688 1.533,-1.534 M -11.543,95.292 c 0,-0.853 -0.692,-1.547 -1.545,-1.547 -0.851,0 -1.548,0.694 -1.548,1.547 0,0.853 0.697,1.547 1.548,1.547 0.853,0 1.545,-0.694 1.545,-1.547 m -14.788,7.954 c 1.784,0 3.236,-1.454 3.236,-3.237 0,-1.782 -1.452,-3.237 -3.236,-3.237 -1.784,0 -3.236,1.455 -3.236,3.237 0,1.783 1.452,3.237 3.236,3.237 m -13.583,4.95 c 2.505,0 4.541,-2.037 4.541,-4.544 0,-2.505 -2.036,-4.542 -4.541,-4.542 -2.504,0 -4.542,2.037 -4.542,4.542 0,2.507 2.038,4.544 4.542,4.544 m -13.772,3.815 c 3.04,0 5.514,-2.475 5.514,-5.514 0,-3.042 -2.474,-5.515 -5.514,-5.515 -3.038,0 -5.513,2.473 -5.513,5.515 0,3.039 2.475,5.514 5.513,5.514 m -13.886,2.927 c 3.436,0 6.232,-2.795 6.232,-6.234 0,-3.434 -2.796,-6.228 -6.232,-6.228 -3.438,0 -6.232,2.794 -6.232,6.228 0,3.439 2.794,6.234 6.232,6.234 m -13.961,2.114 c 3.551,0 6.433,-2.796 6.631,-6.298 -0.183,-0.652 -0.288,-1.338 -0.288,-2.05 0,-0.079 0.01,-0.155 0.012,-0.238 -0.829,-2.741 -3.347,-4.753 -6.355,-4.753 -3.677,0 -6.668,2.991 -6.668,6.668 0,3.676 2.991,6.671 6.668,6.671 m -14.015,1.418 c 3.136,0 5.755,-2.116 6.584,-4.987 -0.4,-0.956 -0.622,-2.004 -0.622,-3.102 0,-0.613 0.075,-1.209 0.204,-1.784 -1.117,-2.291 -3.448,-3.887 -6.166,-3.887 -3.794,0 -6.88,3.086 -6.88,6.879 0,3.796 3.086,6.881 6.88,6.881 m -14.033,0.771 c 2.936,0 5.43,-1.855 6.413,-4.452 -0.413,-0.983 -0.646,-2.066 -0.646,-3.2 0,-0.806 0.125,-1.582 0.338,-2.318 -1.138,-2.233 -3.432,-3.782 -6.105,-3.782 -3.792,0 -6.876,3.086 -6.876,6.874 0,3.796 3.084,6.878 6.876,6.878 m -14.058,0.143 c 2.872,0 5.301,-1.835 6.234,-4.386 -0.28,-0.827 -0.438,-1.71 -0.438,-2.635 0,-0.781 0.116,-1.537 0.321,-2.257 -1.021,-2.37 -3.375,-4.038 -6.117,-4.038 -3.671,0 -6.657,2.986 -6.657,6.659 0,3.671 2.986,6.657 6.657,6.657 m -14.061,-0.505 c 3.037,0 5.56,-2.19 6.099,-5.073 -0.048,-0.355 -0.081,-0.713 -0.081,-1.079 0,-0.382 0.036,-0.758 0.089,-1.128 -0.509,-2.917 -3.046,-5.149 -6.107,-5.149 -3.428,0 -6.214,2.788 -6.214,6.217 0,3.424 2.786,6.212 6.214,6.212 m -14.054,-1.239 c 3.029,0 5.492,-2.463 5.492,-5.493 0,-3.029 -2.463,-5.492 -5.492,-5.492 -3.027,0 -5.493,2.463 -5.493,5.492 0,3.03 2.466,5.493 5.493,5.493 m -14.018,-2.023 c 2.494,0 4.521,-2.031 4.521,-4.523 0,-2.493 -2.027,-4.523 -4.521,-4.523 -2.494,0 -4.523,2.03 -4.523,4.523 0,2.492 2.029,4.523 4.523,4.523 m -10.729,-6.284 c 0,-1.774 -1.442,-3.217 -3.217,-3.217 -1.776,0 -3.219,1.443 -3.219,3.217 0,1.776 1.443,3.221 3.219,3.221 1.775,0 3.217,-1.445 3.217,-3.221 M -42.839,57.165 c 4.401,-0.241 9.232,-0.694 13.871,-1.519 8.521,-2.746 17.662,-7.872 18.826,-13.045 0.11,-0.494 0.198,-1.018 0.268,-1.559 -4.218,2.39 -12.13,6.753 -13.639,6.753 -1.391,0 -17.193,1.171 -27.503,1.943 2.844,3.451 5.713,6.379 8.177,7.427 M -206.471,4.721 c -0.263,12.685 -2.364,39.104 3.88,55.103 9.544,3.794 22.35,7.768 35.033,8.302 l -1.846,-1.802 0.43,-2.41 c -8.658,-8.926 -5.367,-6.942 14.72,-1.225 2.882,0.817 11.217,2.669 20.858,2.923 5.742,-4.496 17.765,-15.124 15.738,-14.351 -2.424,0.928 -11.427,4.384 -16.739,4.615 -5.311,0.232 -25.628,-9.003 -27.708,-9.234 l 3.926,-2.311 10.39,3.031 c 0,0 4.156,-5.107 5.542,-5.57 1.385,-0.459 11.776,-2.076 15.238,-0.922 3.463,1.153 3.002,5.308 3.002,5.308 0,0 4.618,0.695 6.349,0.464 1.355,-0.181 4.675,-5.567 6.063,-7.916 -7.183,-2.834 -39.258,-1.301 -47.276,0.295 7.632,-6.103 18.996,-8.461 36.298,-9.599 0,0 16.283,6.828 15.663,6.991 1.319,-0.349 2.827,-0.7 4.313,-0.937 l -17.254,-8.287 c 0,0 -27.707,-11.026 -27.936,-11.719 -0.203,-0.602 35.439,5.544 44.949,7.71 -0.851,-3.409 -1.704,-6.85 -2.436,-9.883 -20.012,-0.894 -41.668,-7.106 -61.807,-11.794 z m -32.671,21.846 c 2.869,-3.918 1.35,-16.201 5.294,-19.609 l -2.013,0.165 -1.356,2.674 c -0.129,0.826 -1.271,8.127 -1.925,16.77 m 12.949,27.967 c 0.994,-9.662 4.372,-43.283 3.778,-48.316 -0.008,-0.063 -0.004,-0.129 -0.008,-0.194 l -10.968,0.896 v 7.797 c 2.853,-3.923 7.708,-7.113 6.926,-5.019 -1.386,3.717 -3.809,7.664 -3.348,8.082 0.463,0.417 2.771,3.234 1.617,4.157 -0.735,0.585 -3.338,2.671 -5.195,4.406 v 5.751 c 0.346,0.463 5.195,7.505 5.195,7.92 0,0.416 -3.118,6.511 -4.618,7.781 -1.5,1.269 -4.272,1.388 -4.272,1.388 l 2.424,-3.813 0.241,-3.119 c -1.46,-4.342 -4.049,-8.389 -4.984,-11.556 -0.405,7.789 -0.25,15.965 1.458,21.145 3.416,0.849 7.853,1.905 11.754,2.694 M 90.432,78.273 c -17.379,21.724 -37.795,6.776 -80.692,-1.7 -5.212,3.336 -8.845,7.444 -8.905,7.512 -15.822,20.858 -13.004,78.482 -22.27,84.232 -10.044,6.237 -32.902,40.175 -59.222,48.489 -26.322,8.312 -89.353,-31.168 -102.515,-38.79 -12.368,-7.159 -20.456,-62.642 -34.031,-74.474 -2.185,-1.477 -5.033,-3.01 -8.343,-3.921 -4.051,1.34 -8.229,2.764 -12.58,4.28 0,0 -48.139,32.325 -66.61,18.009 -18.087,-14.017 1.249,-87.913 63.518,-110.814 l 0.338,-4.39 c -44.251,-8.321 -86.077,-38.052 -112.689,-74.585 20.209,-8.282 85.419,-40.985 74.809,-45.676 -18.702,-8.276 -62.341,-26.363 -62.341,-38.139 0,-11.775 101.333,-232.045 101.333,-232.045 l 145.257,-21.47 116.496,21.47 c 0,0 64.522,181.782 57.594,199.098 -6.927,17.316 -66.033,54.42 -66.033,54.42 l 54.721,44.332 c 0,0 -18.684,50.328 -66.992,72.578 l 9.873,17.545 c 15.464,5.689 105.908,40.758 79.284,74.039"
             style="fill:#000000;fill-opacity:1;fill-rule:nonzero;stroke:none"
             id="path786" />
        </g>
        <g
           id="g788"
           transform="translate(507.9526,728.0454)">
          <path
             d="m 0,0 c -9.813,13.045 -38.384,2.31 -80.691,-1.7 -5.212,3.336 -8.845,7.445 -8.906,7.511 -15.821,20.861 -13.004,78.487 -22.27,84.235 -10.043,6.237 -32.901,40.175 -59.222,48.488 -26.32,8.313 -89.355,-31.17 -102.517,-38.79 -12.365,-7.158 -20.452,-62.643 -34.03,-74.475 -2.182,-1.477 -5.033,-3.006 -8.342,-3.919 -4.05,1.34 -8.228,2.763 -12.578,4.282 0,0 -48.14,32.321 -66.611,18.007 -18.089,-14.018 1.249,-87.915 63.522,-110.815 l 0.334,-4.391 c -44.25,-8.318 -86.079,-38.05 -112.689,-74.586 20.207,-8.277 85.421,-40.984 74.808,-45.676 -18.701,-8.273 -62.339,-26.361 -62.339,-38.138 0,-11.774 101.334,-232.043 101.334,-232.043 l 145.254,-21.473 116.497,21.473 c 0,0 64.52,181.779 57.594,199.095 -6.926,17.317 -66.035,54.42 -66.035,54.42 l 54.723,44.334 c 0,0 -18.685,50.327 -66.992,72.578 l 9.873,17.544 C -63.815,-68.351 26.623,-33.279 0,0"
             style="fill:#ed1c24;fill-opacity:1;fill-rule:nonzero;stroke:none"
             id="path790" />
        </g>
        <g
           id="g792"
           transform="translate(531.0425,731.7407)">
          <path
             d="m 0,0 c -17.378,21.724 -37.795,6.775 -80.691,-1.7 -5.214,3.336 -8.847,7.443 -8.906,7.51 -15.823,20.86 -13.005,78.488 -22.27,84.234 -10.043,6.236 -32.902,40.175 -59.224,48.488 -26.32,8.313 -89.355,-31.168 -102.515,-38.79 -12.367,-7.158 -20.452,-62.641 -34.03,-74.473 -2.182,-1.479 -5.033,-3.006 -8.342,-3.921 -4.05,1.339 -8.23,2.763 -12.58,4.282 0,0 -48.14,32.322 -66.611,18.007 -18.089,-14.018 1.251,-87.915 63.522,-110.815 l 0.334,-4.391 c -44.25,-8.318 -86.078,-38.05 -112.689,-74.584 20.207,-8.279 85.419,-40.986 74.811,-45.676 -18.703,-8.275 -62.341,-26.363 -62.341,-38.138 0,-11.776 101.333,-232.045 101.333,-232.045 l 145.256,-21.471 116.497,21.471 c 0,0 64.52,181.781 57.593,199.097 -6.927,17.317 -66.036,54.42 -66.036,54.42 l 54.723,44.332 c 0,0 -18.685,50.327 -66.99,72.578 l 9.873,17.546 C -63.817,-68.351 26.623,-33.281 0,0"
             style="fill:#ffffff;fill-opacity:1;fill-rule:nonzero;stroke:none"
             id="path794" />
        </g>
        <g
           id="g796"
           transform="translate(440.6108,653.4673)">
          <path
             d="m 0,0 v 0 l -5.256,-11.722 -37.055,3.03 c -7.612,5.213 -17.359,10.879 -30.037,16.66 -5.439,2.478 -11.244,3.989 -17.299,4.771 -0.91,11.984 -2.571,32.185 -3.935,39.62 2.989,2.614 5.192,6.62 6.525,9.547 l 17.784,-2.938 c 0.417,-4.661 1.261,-12.877 2.41,-18.607 h -0.002 c 0,0 0.006,-0.015 0.006,-0.021 0.322,-1.613 0.671,-3.024 1.04,-4.101 1.454,-5.688 4.039,-15.638 5.248,-19.267 1.732,-5.194 33.249,-12.47 30.131,-10.392 -3.119,2.08 -14.544,8.316 -18.702,13.118 -4.155,4.808 15.238,0.39 17.664,0.39 2.423,0 13.506,-2.076 0,3.37 -12.09,4.88 -21.124,10.402 -22.897,11.513 0.213,3.735 2.215,8.034 10.314,8.034 -0.232,-5.946 4.502,-9.294 4.502,-9.294 0,0 5.351,-2.941 11.671,-2.012 3.925,0.577 2.988,8.662 11.995,3.485 2.665,-1.534 4.626,-2.942 6.004,-4.058 -0.368,-5.942 -0.728,-10.283 2.654,-5.844 2.95,3.874 4.663,11.697 5.62,18.161 C 1.522,40.365 6.536,32.399 7.246,22.699 4.955,15.397 2.354,7.195 0,0 m 13.323,-82.354 c 0.984,-12.732 0.693,-45.024 -45.715,-60.26 -46.409,-15.24 -78.628,-83.773 -74.934,-125.795 -47.734,11.217 -91.069,86.707 -114.294,130.104 5.556,-8.934 11.929,-18.981 18.829,-29.369 -0.095,5.486 0.479,10.869 1.484,16.082 2.395,12.14 6.943,23.435 12.644,33.914 5.721,10.472 12.511,20.267 20.38,29.086 3.939,4.396 8.125,8.582 12.722,12.283 1.182,0.889 2.294,1.848 3.532,2.66 l 1.815,1.258 1.893,1.146 c 2.543,1.457 5.216,2.789 8.093,3.366 -2.802,-0.858 -5.281,-2.422 -7.622,-4.09 l -1.729,-1.299 -1.649,-1.402 c -1.121,-0.907 -2.124,-1.961 -3.183,-2.934 -4.113,-4.043 -7.78,-8.524 -11.179,-13.166 -6.781,-9.307 -12.391,-19.43 -16.831,-29.912 -4.435,-10.475 -7.566,-21.477 -8.603,-32.397 -0.89,-9.318 1.934,-29.097 5.821,-40.017 24.516,-33.836 52.074,-64.653 72.683,-65.959 -2.649,30.092 13.422,71.078 39.802,97.517 -0.196,7.065 -0.623,14.221 -1.995,21.285 l -0.486,2.952 c -0.192,0.976 -0.435,1.945 -0.649,2.918 l -1.34,5.859 c -1.118,3.846 -2.121,7.76 -3.503,11.551 -2.6,7.646 -5.722,15.183 -9.433,22.457 -3.693,7.285 -7.851,14.383 -12.7,21.051 5.738,-5.93 10.91,-12.452 15.673,-19.272 4.782,-6.818 9.049,-14.035 12.841,-21.539 1.977,-3.723 3.594,-7.617 5.327,-11.486 l 2.275,-5.942 c 0.372,-0.996 0.77,-1.984 1.118,-2.99 l 0.959,-3.049 c 2.084,-6.068 2.744,-8.964 3.529,-13.656 7.471,5.625 15.544,10.065 24.084,12.865 2.533,0.832 4.91,1.725 7.175,2.655 1.075,7.486 0.702,15.181 -1.559,22.57 -2.518,8.439 -7.171,16.375 -12.905,23.56 -5.739,7.215 -12.522,13.727 -19.583,19.954 l -10.712,9.289 c -3.557,3.115 -7.133,6.279 -10.211,9.878 3.412,-3.28 7.236,-6.044 11.072,-8.792 l 11.585,-8.209 c 7.69,-5.555 15.24,-11.481 22.004,-18.453 6.745,-6.95 12.731,-15.042 16.582,-24.44 3.107,-7.428 4.754,-12.895 4.792,-19.93 5.546,3.262 10.002,6.844 13.582,10.573 -0.805,9.728 -1.39,24.732 -3.516,32.048 -2.421,8.391 -6.377,16.336 -12.696,22.471 -6.197,6.225 -14.06,10.838 -22.307,14.497 l -6.287,2.577 c -2.134,0.768 -4.297,1.465 -6.449,2.201 -1.082,0.356 -2.154,0.744 -3.242,1.074 l -3.291,0.919 -6.593,1.839 6.719,-1.334 3.363,-0.668 c 1.115,-0.247 2.216,-0.558 3.328,-0.831 2.213,-0.575 4.445,-1.108 6.654,-1.72 l 6.564,-2.126 c 8.646,-3.082 17.164,-7.182 24.38,-13.395 0.45,-0.382 0.939,-0.728 1.359,-1.152 l 1.243,-1.277 2.492,-2.573 c 0.793,-0.89 1.476,-1.877 2.218,-2.814 0.698,-0.969 1.538,-1.86 2.107,-2.91 1.215,-2.055 2.587,-4.055 3.528,-6.242 l 1.549,-3.237 1.275,-3.322 c 2.756,-7.369 4.476,-14.928 5.983,-22.412 6.168,11.849 6.012,23.48 5.511,29.994 -1.228,15.92 -9.404,32.106 -15.805,39.684 6.103,-2.887 18.872,-23.543 20.432,-43.766 m -27.244,-137.912 c -0.939,-9.438 -2.219,-18.854 -3.954,-28.19 -1.634,-9.363 -3.852,-18.609 -6.217,-27.82 -2.471,-9.181 -5.264,-18.283 -8.396,-27.275 -6.339,-17.949 -14.185,-35.405 -23.655,-51.926 -1.167,-2.072 -2.354,-4.135 -3.617,-6.152 -1.242,-2.032 -2.468,-4.069 -3.744,-6.075 l -3.981,-5.92 -1.993,-2.953 -2.096,-2.884 -4.247,-5.715 c -1.485,-1.858 -2.949,-3.725 -4.46,-5.551 -2.935,-3.719 -6.214,-7.172 -9.383,-10.674 1.235,2.027 2.518,4.012 3.769,6.012 l 1.918,2.967 1.817,3.031 c 1.197,2.029 2.444,4.019 3.671,6.021 l 3.488,6.12 1.769,3.037 1.677,3.088 3.348,6.171 c 2.07,4.204 4.373,8.266 6.333,12.516 8.239,16.773 15.292,34.072 21.551,51.654 3.223,8.764 5.988,17.688 8.676,26.637 2.755,8.934 5.103,17.99 7.457,27.055 2.251,9.09 4.383,18.226 6.255,27.431 1.951,9.198 3.648,18.45 5.159,27.793 0.32,-9.474 -0.3,-18.953 -1.145,-28.398 m -146.953,-93.133 c -21.283,27.611 -38.561,58.205 -52.31,90.152 -13.745,31.975 -24.056,65.358 -30.793,99.407 -3.316,17.035 -5.798,34.242 -6.884,51.576 -0.479,8.668 -0.763,17.355 -0.326,26.046 0.227,4.343 0.583,8.689 1.285,12.997 0.406,2.149 0.804,4.295 1.474,6.385 0.668,2.048 1.452,4.225 3.067,5.697 0.004,0.004 0.006,0.01 0.011,0.014 -0.005,-0.008 -0.007,-0.016 -0.013,-0.021 -0.643,-0.862 -1.103,-1.803 -1.357,-2.832 -0.161,-0.501 -0.296,-1.009 -0.383,-1.536 -0.099,-0.521 -0.224,-1.028 -0.276,-1.561 -0.328,-2.088 -0.387,-4.225 -0.449,-6.343 -0.095,-4.142 0.099,-8.294 0.436,-12.435 0.847,-0.11 1.743,-0.178 2.668,-0.186 0.031,0 0.062,-0.004 0.092,-0.004 1.069,-0.02 2.196,0.066 3.302,0.103 1.132,0.125 2.263,0.211 3.409,0.364 4.589,0.625 9.26,1.655 13.904,2.885 9.303,2.463 18.554,5.568 27.762,8.821 9.211,3.255 18.384,6.708 27.622,10.021 4.623,1.648 9.264,3.27 13.965,4.714 2.348,0.73 4.726,1.378 7.123,1.937 1.209,0.246 2.412,0.499 3.642,0.63 1.22,0.155 2.471,0.171 3.675,-0.053 -1.225,0.121 -2.437,0.007 -3.629,-0.247 -1.196,-0.228 -2.366,-0.577 -3.533,-0.919 -2.323,-0.745 -4.611,-1.577 -6.876,-2.493 -4.532,-1.811 -9,-3.8 -13.456,-5.82 -8.908,-4.046 -17.76,-8.243 -26.729,-12.27 -8.968,-4.026 -18.024,-7.931 -27.425,-11.274 -4.707,-1.667 -9.516,-3.167 -14.563,-4.287 -1.266,-0.277 -2.564,-0.489 -3.851,-0.736 -0.342,-0.042 -0.683,-0.087 -1.024,-0.132 -0.988,-0.129 -1.971,-0.262 -2.994,-0.33 -1.195,-0.082 -1.693,-0.178 -2.134,-0.192 0.131,-1.185 0.254,-2.367 0.402,-3.549 0.565,-4.222 1.171,-8.437 1.901,-12.636 0.648,-3.905 1.348,-7.799 2.088,-11.686 0.209,-1.109 0.427,-2.215 0.647,-3.32 3.086,4.47 6.914,8.074 10.911,11.209 8.893,6.812 18.706,11.594 28.647,15.709 9.972,4.076 20.167,7.371 30.457,10.218 10.295,2.824 20.686,5.246 31.161,7.123 -10.298,-2.662 -20.443,-5.86 -30.428,-9.435 -9.971,-3.59 -19.781,-7.613 -29.184,-12.318 -9.358,-4.723 -18.453,-10.116 -25.986,-16.875 -3.714,-3.385 -7.009,-7.153 -9.151,-11.247 -2.159,-4.089 -2.999,-8.412 -2.261,-12.558 l -0.26,-0.031 c 0.992,-4.272 2.025,-8.53 3.104,-12.776 0.33,-1.312 0.66,-2.627 1.002,-3.939 8.566,-32.93 19.523,-65.188 32.928,-96.338 13.428,-31.133 29.326,-61.193 48.404,-89.227 19.047,-28.056 41.384,-53.943 67.247,-76.742 -29.367,18.184 -54.792,42.809 -76.061,70.34 m -55.884,413.798 C -192.447,91.359 -58.33,67.171 2.193,79.02 l 3.06,-3.295 c -17.81,-3.199 -39.332,-5.121 -65.824,-2.994 -83.803,6.729 -114.94,10.849 -159.156,24.998 z m 24.823,6.032 c 0,-0.845 -0.689,-1.534 -1.534,-1.534 -0.846,0 -1.533,0.689 -1.533,1.534 0,0.846 0.687,1.534 1.533,1.534 0.845,0 1.534,-0.688 1.534,-1.534 M -11.543,95.292 c 0,-0.853 -0.691,-1.547 -1.545,-1.547 -0.852,0 -1.549,0.694 -1.549,1.547 0,0.853 0.697,1.547 1.549,1.547 0.854,0 1.545,-0.694 1.545,-1.547 m -14.789,7.954 c 1.784,0 3.234,-1.454 3.234,-3.237 0,-1.782 -1.45,-3.237 -3.234,-3.237 -1.783,0 -3.235,1.455 -3.235,3.237 0,1.783 1.452,3.237 3.235,3.237 m -13.583,4.95 c 2.505,0 4.542,-2.037 4.542,-4.544 0,-2.505 -2.037,-4.542 -4.542,-4.542 -2.503,0 -4.542,2.037 -4.542,4.542 0,2.507 2.039,4.544 4.542,4.544 m -13.771,3.815 c 3.039,0 5.513,-2.475 5.513,-5.514 0,-3.042 -2.474,-5.515 -5.513,-5.515 -3.039,0 -5.513,2.473 -5.513,5.515 0,3.039 2.474,5.514 5.513,5.514 m -13.887,2.927 c 3.439,0 6.233,-2.795 6.233,-6.234 0,-3.434 -2.794,-6.228 -6.233,-6.228 -3.435,0 -6.233,2.794 -6.233,6.228 0,3.439 2.798,6.234 6.233,6.234 m -13.961,2.114 c 3.551,0 6.434,-2.796 6.632,-6.298 -0.183,-0.652 -0.286,-1.338 -0.286,-2.05 0,-0.079 0.008,-0.155 0.008,-0.238 -0.828,-2.741 -3.345,-4.753 -6.354,-4.753 -3.674,0 -6.669,2.991 -6.669,6.668 0,3.676 2.995,6.671 6.669,6.671 m -14.014,1.418 c 3.135,0 5.754,-2.116 6.585,-4.987 -0.402,-0.956 -0.626,-2.004 -0.626,-3.102 0,-0.613 0.076,-1.209 0.207,-1.784 -1.118,-2.291 -3.448,-3.887 -6.166,-3.887 -3.794,0 -6.88,3.086 -6.88,6.879 0,3.796 3.086,6.881 6.88,6.881 m -14.033,0.771 c 2.936,0 5.43,-1.855 6.413,-4.452 -0.414,-0.983 -0.645,-2.066 -0.645,-3.2 0,-0.806 0.123,-1.582 0.338,-2.318 -1.139,-2.233 -3.434,-3.782 -6.106,-3.782 -3.792,0 -6.876,3.086 -6.876,6.874 0,3.796 3.084,6.878 6.876,6.878 m -14.058,0.143 c 2.872,0 5.301,-1.835 6.233,-4.386 -0.279,-0.827 -0.439,-1.71 -0.439,-2.635 0,-0.781 0.118,-1.537 0.323,-2.257 -1.019,-2.37 -3.376,-4.038 -6.117,-4.038 -3.67,0 -6.658,2.986 -6.658,6.659 0,3.671 2.988,6.657 6.658,6.657 m -14.061,-0.505 c 3.036,0 5.56,-2.19 6.1,-5.073 -0.05,-0.355 -0.083,-0.713 -0.083,-1.079 0,-0.382 0.037,-0.758 0.09,-1.128 -0.509,-2.917 -3.045,-5.149 -6.107,-5.149 -3.428,0 -6.214,2.788 -6.214,6.217 0,3.424 2.786,6.212 6.214,6.212 m -14.053,-1.239 c 3.029,0 5.489,-2.463 5.489,-5.493 0,-3.029 -2.46,-5.492 -5.489,-5.492 -3.028,0 -5.494,2.463 -5.494,5.492 0,3.03 2.466,5.493 5.494,5.493 m -14.019,-2.023 c 2.492,0 4.522,-2.031 4.522,-4.523 0,-2.493 -2.03,-4.523 -4.522,-4.523 -2.495,0 -4.523,2.03 -4.523,4.523 0,2.492 2.028,4.523 4.523,4.523 m -10.729,-6.284 c 0,-1.774 -1.442,-3.217 -3.219,-3.217 -1.773,0 -3.217,1.443 -3.217,3.217 0,1.776 1.444,3.221 3.217,3.221 1.777,0 3.219,-1.445 3.219,-3.221 M -42.84,57.165 c 4.404,-0.241 9.232,-0.694 13.872,-1.519 8.52,-2.746 17.664,-7.872 18.826,-13.045 0.11,-0.494 0.197,-1.018 0.267,-1.559 -4.217,2.39 -12.129,6.753 -13.641,6.753 -1.388,0 -17.19,1.171 -27.5,1.943 2.843,3.451 5.713,6.379 8.176,7.427 M -206.469,4.721 c -0.264,12.685 -2.365,39.104 3.879,55.103 9.543,3.794 22.348,7.768 35.031,8.302 l -1.846,-1.802 0.43,-2.41 c -8.658,-8.926 -5.367,-6.942 14.721,-1.225 2.881,0.817 11.217,2.669 20.858,2.923 5.739,-4.496 17.764,-15.124 15.738,-14.351 -2.422,0.928 -11.428,4.384 -16.74,4.615 -5.311,0.232 -25.627,-9.003 -27.707,-9.234 l 3.926,-2.311 10.389,3.031 c 0,0 4.156,-5.107 5.542,-5.57 1.386,-0.459 11.774,-2.076 15.24,-0.922 3.462,1.153 2.999,5.308 2.999,5.308 0,0 4.619,0.695 6.351,0.464 1.354,-0.181 4.672,-5.567 6.063,-7.916 -7.183,-2.834 -39.258,-1.301 -47.277,0.295 7.632,-6.103 18.996,-8.461 36.298,-9.599 0,0 16.284,6.828 15.665,6.991 1.319,-0.349 2.824,-0.7 4.312,-0.937 l -17.253,-8.287 c 0,0 -27.709,-11.026 -27.938,-11.719 -0.203,-0.602 35.439,5.544 44.95,7.71 -0.852,-3.409 -1.704,-6.85 -2.435,-9.883 -20.013,-0.894 -41.67,-7.106 -61.811,-11.794 z m -32.674,21.846 c 2.87,-3.918 1.355,-16.201 5.294,-19.609 l -2.013,0.165 -1.353,2.674 c -0.131,0.826 -1.273,8.127 -1.928,16.77 m 12.947,27.967 c 0.997,-9.662 4.373,-43.283 3.781,-48.316 -0.008,-0.063 -0.004,-0.129 -0.008,-0.194 l -10.968,0.896 v 7.797 c 2.853,-3.923 7.707,-7.113 6.925,-5.019 -1.384,3.717 -3.808,7.664 -3.345,8.082 0.461,0.417 2.769,3.234 1.615,4.157 -0.735,0.585 -3.341,2.671 -5.195,4.406 v 5.751 c 0.345,0.463 5.195,7.505 5.195,7.92 0,0.416 -3.116,6.511 -4.618,7.781 -1.501,1.269 -4.272,1.388 -4.272,1.388 l 2.424,-3.813 0.24,-3.119 c -1.459,-4.342 -4.048,-8.389 -4.983,-11.556 -0.406,7.789 -0.251,15.965 1.457,21.145 3.417,0.849 7.853,1.905 11.752,2.694 M 90.432,78.273 c -17.38,21.724 -37.795,6.776 -80.692,-1.7 -5.212,3.336 -8.846,7.444 -8.905,7.512 -15.823,20.858 -13.005,78.482 -22.27,84.232 -10.043,6.237 -32.902,40.175 -59.222,48.489 -26.322,8.312 -89.354,-31.168 -102.516,-38.79 -12.368,-7.159 -20.453,-62.642 -34.031,-74.474 -2.183,-1.477 -5.033,-3.01 -8.343,-3.921 -4.05,1.34 -8.229,2.764 -12.575,4.28 0,0 -48.143,32.325 -66.613,18.009 -18.087,-14.017 1.247,-87.913 63.519,-110.814 l 0.338,-4.39 c -44.254,-8.321 -86.078,-38.052 -112.693,-74.585 20.21,-8.282 85.42,-40.985 74.811,-45.676 -18.702,-8.276 -62.342,-26.363 -62.342,-38.139 0,-11.775 101.335,-232.045 101.335,-232.045 l 145.257,-21.47 116.495,21.47 c 0,0 64.521,181.782 57.594,199.098 -6.928,17.316 -66.034,54.42 -66.034,54.42 l 54.721,44.332 c 0,0 -18.683,50.328 -66.991,72.578 l 9.873,17.545 c 15.464,5.689 105.907,40.758 79.284,74.039"
             style="fill:#000000;fill-opacity:1;fill-rule:nonzero;stroke:none"
             id="path798" />
        </g>
        <g
           id="g800"
           transform="translate(851.9619,790.6313)">
          <path
             d="m 0,0 c -11.279,14.995 -44.127,2.654 -92.758,-1.953 -5.99,3.833 -10.168,8.556 -10.236,8.632 -18.19,23.977 -14.949,90.219 -25.599,96.83 -11.545,7.169 -37.821,46.183 -68.079,55.738 -30.255,9.554 -102.712,-35.831 -117.842,-44.59 -14.218,-8.228 -23.514,-72.009 -39.118,-85.614 -2.511,-1.696 -5.785,-3.454 -9.592,-4.504 -4.655,1.542 -9.459,3.18 -14.456,4.922 0,0 -55.341,37.157 -76.571,20.702 -20.793,-16.113 1.432,-101.059 73.016,-127.388 l 0.387,-5.046 c -50.871,-9.561 -98.949,-43.737 -129.541,-85.734 23.23,-9.517 98.191,-47.113 85.994,-52.507 -21.498,-9.51 -71.661,-30.303 -71.661,-43.84 0,-13.535 116.487,-266.74 116.487,-266.74 l 166.973,-24.682 133.914,24.682 c 0,0 74.168,208.961 66.209,228.865 -7.963,19.908 -75.909,62.557 -75.909,62.557 l 62.903,50.959 c 0,0 -21.477,57.856 -77.008,83.434 l 11.349,20.169 C -73.361,-78.571 30.604,-38.257 0,0"
             style="fill:#ed1c24;fill-opacity:1;fill-rule:nonzero;stroke:none"
             id="path802" />
        </g>
        <g
           id="g804"
           transform="translate(889.6582,794.8765)">
          <path
             d="m 0,0 c -19.978,24.973 -43.445,7.791 -92.759,-1.951 -5.991,3.834 -10.165,8.553 -10.235,8.632 -18.19,23.978 -14.949,90.218 -25.601,96.831 -11.543,7.166 -37.819,46.181 -68.076,55.735 -30.258,9.557 -102.715,-35.83 -117.845,-44.587 -14.216,-8.231 -23.512,-72.013 -39.116,-85.61 -2.513,-1.701 -5.787,-3.458 -9.592,-4.51 -4.657,1.541 -9.459,3.179 -14.458,4.923 0,0 -55.34,37.155 -76.571,20.7 -20.794,-16.112 1.432,-101.058 73.017,-127.385 l 0.388,-5.049 c -50.869,-9.561 -98.949,-43.735 -129.539,-85.733 23.229,-9.519 98.189,-47.113 85.993,-52.507 -21.499,-9.51 -71.664,-30.305 -71.664,-43.838 0,-13.535 116.487,-266.74 116.487,-266.74 l 166.973,-24.686 133.916,24.686 c 0,0 74.17,208.96 66.206,228.863 -7.963,19.908 -75.908,62.558 -75.908,62.558 l 62.904,50.96 c 0,0 -21.476,57.855 -77.007,83.432 l 11.347,20.17 C -73.36,-78.571 30.603,-38.254 0,0"
             style="fill:#ffffff;fill-opacity:1;fill-rule:nonzero;stroke:none"
             id="path806" />
        </g>
        <g
           id="g808"
           transform="translate(774.5498,704.9009)">
          <path
             d="m 0,0 v 0.002 l -6.039,-13.478 -42.597,3.482 c -8.751,5.997 -19.956,12.509 -34.528,19.151 -6.254,2.853 -12.925,4.587 -19.886,5.489 -1.046,13.775 -2.955,36.996 -4.526,45.544 3.44,3.002 5.97,7.605 7.504,10.975 l 20.44,-3.38 c 0.484,-5.357 1.452,-14.804 2.771,-21.389 h -0.002 c 0,0 0.006,-0.017 0.006,-0.023 0.374,-1.855 0.774,-3.476 1.197,-4.718 1.671,-6.537 4.642,-17.977 6.034,-22.144 1.989,-5.973 38.22,-14.333 34.635,-11.947 -3.583,2.39 -16.719,9.559 -21.498,15.082 -4.777,5.525 17.517,0.446 20.305,0.446 2.785,0 15.526,-2.39 0,3.875 -13.898,5.606 -24.285,11.955 -26.318,13.23 0.243,4.297 2.542,9.24 11.853,9.24 -0.266,-6.836 5.175,-10.686 5.175,-10.686 0,0 6.154,-3.38 13.416,-2.312 4.512,0.663 3.436,9.957 13.79,4.005 3.064,-1.761 5.313,-3.381 6.9,-4.665 -0.421,-6.833 -0.835,-11.818 3.052,-6.715 3.393,4.453 5.361,13.443 6.462,20.879 C 1.748,46.399 7.516,37.244 8.328,26.094 5.697,17.7 2.707,8.271 0,0 m 15.316,-94.666 c 1.127,-14.639 0.795,-51.756 -52.55,-69.274 -53.349,-17.517 -90.386,-96.297 -86.139,-144.6 -54.872,12.893 -104.688,99.672 -131.381,149.557 6.383,-10.27 13.711,-21.822 21.639,-33.76 -0.102,6.307 0.554,12.493 1.71,18.483 2.752,13.957 7.981,26.941 14.534,38.984 6.577,12.043 14.38,23.299 23.426,33.438 4.532,5.053 9.342,9.865 14.625,14.116 1.36,1.026 2.639,2.128 4.062,3.06 l 2.083,1.446 2.175,1.318 c 2.925,1.677 6,3.207 9.306,3.868 -3.221,-0.984 -6.07,-2.784 -8.763,-4.699 l -1.989,-1.495 -1.893,-1.613 c -1.291,-1.04 -2.442,-2.253 -3.66,-3.368 -4.727,-4.65 -8.943,-9.797 -12.848,-15.134 -7.801,-10.701 -14.244,-22.337 -19.348,-34.388 -5.098,-12.041 -8.7,-24.684 -9.888,-37.24 -1.025,-10.711 2.219,-33.446 6.689,-45.998 28.184,-38.899 59.861,-74.323 83.548,-75.826 -3.04,34.595 15.434,81.707 45.757,112.101 -0.224,8.121 -0.718,16.346 -2.295,24.467 l -0.557,3.392 c -0.223,1.125 -0.499,2.237 -0.747,3.356 l -1.541,6.732 c -1.285,4.42 -2.437,8.92 -4.027,13.278 -2.989,8.791 -6.576,17.453 -10.843,25.818 -4.245,8.37 -9.024,16.534 -14.598,24.196 6.594,-6.816 12.541,-14.312 18.014,-22.155 5.496,-7.836 10.401,-16.129 14.762,-24.758 2.276,-4.277 4.13,-8.754 6.125,-13.201 l 2.613,-6.83 c 0.429,-1.145 0.887,-2.281 1.285,-3.437 l 1.103,-3.504 c 2.397,-6.981 3.158,-10.307 4.058,-15.698 8.589,6.463 17.869,11.567 27.682,14.787 2.915,0.957 5.643,1.983 8.25,3.049 1.235,8.608 0.809,17.453 -1.791,25.949 -2.894,9.698 -8.245,18.819 -14.838,27.083 -6.595,8.294 -14.389,15.778 -22.507,22.936 l -12.316,10.673 c -4.09,3.585 -8.2,7.22 -11.74,11.36 3.925,-3.77 8.32,-6.95 12.729,-10.109 l 13.316,-9.436 c 8.841,-6.387 17.521,-13.196 25.298,-21.213 7.75,-7.985 14.632,-17.29 19.06,-28.092 3.571,-8.539 5.466,-14.823 5.509,-22.91 6.377,3.75 11.496,7.867 15.61,12.154 -0.925,11.183 -1.595,28.431 -4.037,36.838 -2.787,9.646 -7.331,18.78 -14.595,25.83 -7.124,7.159 -16.164,12.462 -25.642,16.668 l -7.229,2.961 c -2.452,0.884 -4.94,1.685 -7.415,2.531 -1.241,0.411 -2.474,0.859 -3.725,1.234 l -3.783,1.057 -7.577,2.115 7.721,-1.535 3.868,-0.769 c 1.283,-0.285 2.547,-0.638 3.825,-0.953 2.546,-0.66 5.109,-1.276 7.652,-1.98 l 7.54,-2.44 c 9.939,-3.546 19.734,-8.256 28.028,-15.4 0.517,-0.442 1.078,-0.837 1.559,-1.323 l 1.43,-1.469 2.865,-2.958 c 0.913,-1.026 1.696,-2.157 2.552,-3.235 0.801,-1.116 1.763,-2.137 2.42,-3.346 1.397,-2.359 2.974,-4.659 4.058,-7.175 l 1.78,-3.72 1.463,-3.819 c 3.17,-8.472 5.148,-17.161 6.88,-25.763 7.087,13.62 6.912,26.993 6.335,34.482 -1.414,18.297 -10.812,36.903 -18.168,45.615 7.015,-3.319 21.692,-27.065 23.486,-50.309 m -31.317,-158.536 c -1.086,-10.847 -2.549,-21.67 -4.546,-32.404 -1.879,-10.762 -4.43,-21.391 -7.148,-31.98 -2.84,-10.553 -6.051,-21.018 -9.652,-31.352 -7.286,-20.635 -16.301,-40.699 -27.191,-59.689 -1.342,-2.385 -2.704,-4.754 -4.156,-7.075 -1.429,-2.332 -2.837,-4.673 -4.307,-6.98 l -4.575,-6.807 -2.291,-3.394 -2.406,-3.319 -4.886,-6.568 c -1.706,-2.133 -3.388,-4.279 -5.126,-6.381 -3.373,-4.275 -7.142,-8.24 -10.782,-12.267 1.416,2.33 2.89,4.611 4.329,6.91 l 2.205,3.41 2.09,3.484 c 1.376,2.334 2.81,4.621 4.218,6.922 l 4.009,7.037 2.034,3.489 1.931,3.55 3.845,7.094 c 2.383,4.832 5.03,9.502 7.283,14.387 9.472,19.279 17.574,39.168 24.772,59.377 3.705,10.074 6.884,20.334 9.972,30.621 3.168,10.267 5.866,20.678 8.571,31.099 2.587,10.45 5.04,20.952 7.193,31.536 2.244,10.568 4.193,21.207 5.927,31.945 0.371,-10.891 -0.345,-21.787 -1.313,-32.645 m -168.926,-107.056 c -24.468,31.736 -44.327,66.906 -60.135,103.631 -15.797,36.755 -27.65,75.13 -35.395,114.271 -3.81,19.582 -6.665,39.361 -7.91,59.285 -0.553,9.964 -0.877,19.951 -0.38,29.945 0.265,4.991 0.672,9.984 1.481,14.937 0.464,2.47 0.923,4.938 1.695,7.342 0.765,2.352 1.668,4.853 3.525,6.548 0.003,0.004 0.007,0.01 0.01,0.015 -0.003,-0.007 -0.007,-0.017 -0.01,-0.025 -0.741,-0.99 -1.268,-2.072 -1.561,-3.252 -0.186,-0.578 -0.342,-1.162 -0.443,-1.765 -0.113,-0.601 -0.255,-1.185 -0.316,-1.796 -0.378,-2.402 -0.444,-4.858 -0.516,-7.292 -0.108,-4.762 0.114,-9.534 0.501,-14.297 0.975,-0.123 2.001,-0.203 3.067,-0.214 0.036,0 0.072,-0.004 0.106,-0.004 1.23,-0.023 2.525,0.08 3.792,0.119 1.306,0.143 2.604,0.244 3.921,0.42 5.275,0.717 10.648,1.902 15.985,3.316 10.692,2.832 21.328,6.401 31.911,10.14 10.59,3.743 21.135,7.713 31.756,11.517 5.314,1.896 10.645,3.762 16.05,5.42 2.697,0.841 5.432,1.585 8.187,2.226 1.389,0.284 2.775,0.576 4.185,0.723 1.404,0.181 2.843,0.197 4.227,-0.06 -1.407,0.142 -2.802,0.007 -4.17,-0.285 -1.378,-0.258 -2.722,-0.661 -4.064,-1.051 -2.668,-0.858 -5.3,-1.815 -7.904,-2.868 -5.21,-2.083 -10.343,-4.369 -15.467,-6.686 -10.238,-4.654 -20.418,-9.479 -30.726,-14.109 -10.31,-4.627 -20.718,-9.114 -31.525,-12.959 -5.411,-1.917 -10.937,-3.64 -16.741,-4.927 -1.453,-0.32 -2.949,-0.566 -4.425,-0.847 -0.395,-0.049 -0.786,-0.1 -1.179,-0.153 -1.131,-0.151 -2.264,-0.298 -3.44,-0.378 -1.375,-0.097 -1.944,-0.203 -2.457,-0.224 0.154,-1.359 0.292,-2.719 0.467,-4.073 0.65,-4.858 1.344,-9.702 2.183,-14.53 0.744,-4.487 1.549,-8.966 2.398,-13.434 0.243,-1.271 0.494,-2.547 0.744,-3.816 3.55,5.137 7.95,9.282 12.542,12.887 10.226,7.831 21.505,13.325 32.932,18.056 11.46,4.684 23.186,8.474 35.013,11.746 11.836,3.247 23.777,6.031 35.819,8.19 -11.837,-3.066 -23.502,-6.738 -34.976,-10.847 -11.463,-4.126 -22.741,-8.753 -33.551,-14.162 -10.758,-5.424 -21.211,-11.628 -29.869,-19.395 -4.271,-3.892 -8.055,-8.223 -10.519,-12.93 -2.482,-4.701 -3.448,-9.666 -2.6,-14.433 l -0.298,-0.039 c 1.137,-4.907 2.329,-9.803 3.564,-14.686 0.384,-1.506 0.762,-3.02 1.156,-4.525 9.848,-37.856 22.441,-74.938 37.848,-110.746 15.437,-35.784 33.713,-70.342 55.645,-102.569 21.894,-32.248 47.568,-62.008 77.297,-88.213 -33.754,20.901 -62.982,49.209 -87.43,80.856 m -64.241,475.667 C -221.222,105.022 -67.053,77.214 2.524,90.835 l 3.513,-3.788 c -20.473,-3.676 -45.212,-5.885 -75.663,-3.441 -96.334,7.736 -132.126,12.473 -182.956,28.735 z m 28.536,6.938 c 0,-0.972 -0.791,-1.766 -1.764,-1.766 -0.972,0 -1.763,0.794 -1.763,1.766 0,0.971 0.791,1.76 1.763,1.76 0.973,0 1.764,-0.789 1.764,-1.76 m 207.366,-12.808 c 0,-0.979 -0.798,-1.778 -1.779,-1.778 -0.98,0 -1.777,0.799 -1.777,1.778 0,0.982 0.797,1.776 1.777,1.776 0.981,0 1.779,-0.794 1.779,-1.776 m -17.002,9.145 c 2.05,0 3.72,-1.671 3.72,-3.72 0,-2.05 -1.67,-3.721 -3.72,-3.721 -2.053,0 -3.719,1.671 -3.719,3.721 0,2.049 1.666,3.72 3.719,3.72 m -15.614,5.689 c 2.88,0 5.222,-2.342 5.222,-5.219 0,-2.881 -2.342,-5.223 -5.222,-5.223 -2.879,0 -5.221,2.342 -5.221,5.223 0,2.877 2.342,5.219 5.221,5.219 m -15.83,4.386 c 3.496,0 6.339,-2.843 6.339,-6.339 0,-3.493 -2.843,-6.337 -6.339,-6.337 -3.496,0 -6.339,2.844 -6.339,6.337 0,3.496 2.843,6.339 6.339,6.339 m -15.964,3.365 c 3.95,0 7.165,-3.213 7.165,-7.164 0,-3.95 -3.215,-7.165 -7.165,-7.165 -3.951,0 -7.162,3.215 -7.162,7.165 0,3.951 3.211,7.164 7.162,7.164 m -16.048,2.43 c 4.081,0 7.394,-3.213 7.624,-7.239 -0.211,-0.75 -0.332,-1.54 -0.332,-2.355 0,-0.094 0.011,-0.183 0.013,-0.275 -0.952,-3.149 -3.847,-5.462 -7.305,-5.462 -4.224,0 -7.666,3.436 -7.666,7.663 0,4.226 3.442,7.668 7.666,7.668 m -16.109,1.632 c 3.602,0 6.616,-2.437 7.568,-5.734 -0.461,-1.098 -0.717,-2.302 -0.717,-3.566 0,-0.706 0.087,-1.391 0.238,-2.053 -1.285,-2.633 -3.965,-4.468 -7.089,-4.468 -4.361,0 -7.909,3.549 -7.909,7.91 0,4.362 3.548,7.911 7.909,7.911 m -16.133,0.884 c 3.377,0 6.242,-2.133 7.374,-5.117 -0.478,-1.135 -0.742,-2.376 -0.742,-3.678 0,-0.926 0.137,-1.822 0.385,-2.669 -1.306,-2.565 -3.944,-4.341 -7.017,-4.341 -4.359,0 -7.906,3.545 -7.906,7.902 0,4.359 3.547,7.903 7.906,7.903 m -16.16,0.167 c 3.3,0 6.094,-2.114 7.166,-5.045 -0.32,-0.952 -0.503,-1.967 -0.503,-3.025 0,-0.901 0.133,-1.77 0.368,-2.596 -1.171,-2.725 -3.879,-4.642 -7.031,-4.642 -4.22,0 -7.652,3.433 -7.652,7.652 0,4.221 3.432,7.656 7.652,7.656 m -16.163,-0.585 c 3.49,0 6.392,-2.516 7.012,-5.83 -0.056,-0.406 -0.094,-0.819 -0.094,-1.241 0,-0.438 0.042,-0.869 0.1,-1.294 -0.583,-3.355 -3.499,-5.92 -7.018,-5.92 -3.94,0 -7.144,3.205 -7.144,7.146 0,3.938 3.204,7.139 7.144,7.139 m -16.154,-1.423 c 3.48,0 6.312,-2.832 6.312,-6.314 0,-3.48 -2.832,-6.312 -6.312,-6.312 -3.482,0 -6.314,2.832 -6.314,6.312 0,3.482 2.832,6.314 6.314,6.314 m -16.115,-2.327 c 2.863,0 5.198,-2.331 5.198,-5.198 0,-2.868 -2.335,-5.196 -5.198,-5.196 -2.866,0 -5.198,2.328 -5.198,5.196 0,2.867 2.332,5.198 5.198,5.198 m -12.331,-7.221 c 0,-2.038 -1.658,-3.7 -3.7,-3.7 -2.041,0 -3.702,1.662 -3.702,3.7 0,2.04 1.661,3.701 3.702,3.701 2.042,0 3.7,-1.661 3.7,-3.701 M -49.244,65.713 c 5.059,-0.279 10.61,-0.801 15.945,-1.746 9.795,-3.156 20.304,-9.051 21.641,-14.995 0.127,-0.568 0.227,-1.171 0.306,-1.794 -4.848,2.744 -13.941,7.766 -15.675,7.766 -1.599,0 -19.764,1.342 -31.616,2.232 3.27,3.965 6.565,7.334 9.399,8.537 M -237.339,5.426 c -0.304,14.582 -2.718,44.95 4.46,63.342 10.967,4.36 25.689,8.928 40.269,9.544 l -2.126,-2.07 0.5,-2.77 c -9.953,-10.26 -6.175,-7.979 16.919,-1.41 3.311,0.939 12.894,3.068 23.976,3.361 6.599,-5.17 20.421,-17.389 18.091,-16.497 -2.784,1.064 -13.139,5.041 -19.241,5.304 -6.106,0.268 -29.461,-10.348 -31.85,-10.617 l 4.511,-2.651 11.941,3.481 c 0,0 4.78,-5.87 6.371,-6.4 1.595,-0.535 13.537,-2.391 17.518,-1.064 3.982,1.327 3.451,6.105 3.451,6.105 0,0 5.308,0.798 7.299,0.529 1.557,-0.206 5.373,-6.397 6.969,-9.099 -8.258,-3.257 -45.126,-1.492 -54.346,0.342 8.776,-7.016 21.837,-9.726 41.725,-11.036 0,0 18.721,7.85 18.007,8.036 1.517,-0.4 3.249,-0.8 4.957,-1.074 l -19.835,-9.527 c 0,0 -31.848,-12.675 -32.112,-13.472 -0.231,-0.69 40.738,6.369 51.672,8.864 -0.982,-3.921 -1.96,-7.873 -2.803,-11.36 -23.002,-1.028 -47.897,-8.172 -71.047,-13.56 z m -37.56,25.115 c 3.298,-4.502 1.554,-18.624 6.088,-22.542 l -2.316,0.189 -1.557,3.072 c -0.151,0.953 -1.464,9.344 -2.215,19.281 m 14.883,32.148 c 1.142,-11.106 5.026,-49.756 4.347,-55.542 -0.01,-0.072 -0.004,-0.148 -0.01,-0.223 l -12.608,1.03 v 8.966 c 3.28,-4.512 8.86,-8.179 7.96,-5.772 -1.591,4.274 -4.377,8.81 -3.847,9.292 0.53,0.479 3.186,3.716 1.858,4.776 -0.847,0.677 -3.838,3.07 -5.971,5.067 v 6.613 c 0.397,0.529 5.971,8.624 5.971,9.101 0,0.479 -3.581,7.485 -5.307,8.947 -1.726,1.457 -4.912,1.59 -4.912,1.59 l 2.786,-4.38 0.278,-3.585 c -1.678,-4.992 -4.654,-9.643 -5.73,-13.283 -0.465,8.954 -0.287,18.353 1.676,24.306 3.927,0.975 9.028,2.19 13.509,3.097 M 103.952,89.976 C 83.975,114.948 60.509,97.768 11.198,88.022 5.206,91.858 1.027,96.576 0.961,96.656 c -18.188,23.979 -14.948,90.221 -25.602,96.831 -11.543,7.166 -37.821,46.18 -68.077,55.738 -30.257,9.554 -102.714,-35.832 -117.842,-44.591 -14.219,-8.232 -23.514,-72.009 -39.12,-85.611 -2.511,-1.699 -5.784,-3.456 -9.592,-4.505 -4.655,1.539 -9.455,3.174 -14.456,4.919 0,0 -55.341,37.159 -76.571,20.701 -20.791,-16.114 1.433,-101.057 73.016,-127.384 l 0.387,-5.047 c -50.867,-9.564 -98.949,-43.739 -129.539,-85.737 23.23,-9.515 98.191,-47.111 85.994,-52.506 -21.498,-9.509 -71.661,-30.302 -71.661,-43.838 0,-13.537 116.487,-266.74 116.487,-266.74 l 166.973,-24.683 133.914,24.683 c 0,0 74.169,208.959 66.207,228.865 -7.961,19.907 -75.909,62.557 -75.909,62.557 l 62.905,50.96 c 0,0 -21.479,57.855 -77.008,83.431 L 12.816,4.868 c 17.777,6.536 121.74,46.854 91.136,85.108"
             style="fill:#000000;fill-opacity:1;fill-rule:nonzero;stroke:none"
             id="path810" />
        </g>
      </g>
    </g>
  </g>
</svg>
