<?xml version="1.0" encoding="UTF-8" standalone="no"?>
<!-- Created with Inkscape (http://www.inkscape.org/) -->

<svg
   xmlns:dc="http://purl.org/dc/elements/1.1/"
   xmlns:cc="http://creativecommons.org/ns#"
   xmlns:rdf="http://www.w3.org/1999/02/22-rdf-syntax-ns#"
   xmlns:svg="http://www.w3.org/2000/svg"
   xmlns="http://www.w3.org/2000/svg"
   xmlns:sodipodi="http://sodipodi.sourceforge.net/DTD/sodipodi-0.dtd"
   xmlns:inkscape="http://www.inkscape.org/namespaces/inkscape"
   width="161.04408mm"
   height="294.78452mm"
   viewBox="0 0 161.04408 294.78452"
   version="1.1"
   id="svg8"
   inkscape:version="0.92.3 (2405546, 2018-03-11)"
   sodipodi:docname="Friday night out.svg">
  <title
     id="title226">Friday night out</title>
  <defs
     id="defs2" />
  <sodipodi:namedview
     id="base"
     pagecolor="#ffffff"
     bordercolor="#666666"
     borderopacity="1.0"
     inkscape:pageopacity="0.0"
     inkscape:pageshadow="2"
     inkscape:zoom="0.5"
     inkscape:cx="946.77273"
     inkscape:cy="570.33272"
     inkscape:document-units="mm"
     inkscape:current-layer="layer1"
     showgrid="false"
     fit-margin-top="0"
     fit-margin-left="0"
     fit-margin-right="0"
     fit-margin-bottom="0"
     inkscape:window-width="1920"
     inkscape:window-height="1025"
     inkscape:window-x="0"
     inkscape:window-y="27"
     inkscape:window-maximized="1" />
  <metadata
     id="metadata5">
    <rdf:RDF>
      <cc:Work
         rdf:about="">
        <dc:format>image/svg+xml</dc:format>
        <dc:type
           rdf:resource="http://purl.org/dc/dcmitype/StillImage" />
        <dc:title>Friday night out</dc:title>
        <dc:creator>
          <cc:Agent>
            <dc:title>Doodleguy</dc:title>
          </cc:Agent>
        </dc:creator>
        <dc:rights>
          <cc:Agent>
            <dc:title>public domain</dc:title>
          </cc:Agent>
        </dc:rights>
        <dc:source>www.fresvg.org</dc:source>
        <dc:date>2023</dc:date>
        <cc:license
           rdf:resource="http://creativecommons.org/publicdomain/zero/1.0/" />
      </cc:Work>
      <cc:License
         rdf:about="http://creativecommons.org/publicdomain/zero/1.0/">
        <cc:permits
           rdf:resource="http://creativecommons.org/ns#Reproduction" />
        <cc:permits
           rdf:resource="http://creativecommons.org/ns#Distribution" />
        <cc:permits
           rdf:resource="http://creativecommons.org/ns#DerivativeWorks" />
      </cc:License>
    </rdf:RDF>
  </metadata>
  <g
     inkscape:groupmode="layer"
     id="layer2"
     inkscape:label="b"
     transform="translate(-12.208326,-1.5188564)" />
  <g
     inkscape:label="Layer 1"
     inkscape:groupmode="layer"
     id="layer1"
     transform="translate(-12.208326,-1.5188564)">
    <g
       id="g315">
      <path
         inkscape:connector-curvature="0"
         id="path24"
         d="m 60.523717,77.849983 c -2.700922,0.271851 -4.926115,2.140392 -7.364957,3.171836 -2.215304,7.521654 -7.078853,13.866603 -9.953281,21.097181 -0.725916,2.41746 -1.250712,5.19764 0.09027,7.50243 1.053283,3.76333 4.392957,6.31124 7.037507,8.97801 2.072328,2.18108 5.148815,3.23634 8.105407,2.52756 1.73418,-0.0521 3.600998,-1.14425 5.266327,-0.63071 -0.832905,1.18821 -2.765731,1.28804 -4.08515,1.75819 -0.890704,0.49275 -2.804933,0.0566 -3.189536,1.24313 0.02779,1.11596 0.67297,2.27889 1.89036,2.25144 1.688383,1.31267 1.247905,3.88211 2.177307,5.65292 2.30097,6.2052 4.733925,12.47782 8.367151,18.03731 1.420138,2.32557 2.350453,5.06406 4.479274,6.89354 0.456978,1.09309 1.504672,1.6299 2.660894,1.24785 1.820928,0.0515 3.384544,-1.38651 5.154231,-1.2154 1.832359,1.12652 1.619554,3.76979 2.21139,5.597 0.549683,3.71293 1.675887,7.52892 1.165175,11.27697 -1.481783,3.1179 -5.407149,3.6241 -8.235207,4.96662 -2.862625,1.17751 -5.664324,2.42465 -8.614936,3.35736 -4.819835,2.03148 -9.938962,3.17141 -14.89593,4.79819 -2.65783,0.31526 -5.277713,1.15482 -7.943747,1.25493 -3.244689,-0.83696 -3.985578,-4.62262 -4.805913,-7.36827 -0.72567,-2.82094 -2.062829,-5.61145 -2.243394,-8.51332 0.451075,-1.50404 3.38836,-1.39632 2.766504,-3.33114 -1.233633,-7.09252 -1.537372,-14.41136 -3.683362,-21.31076 -1.169977,-1.78791 -3.147642,-2.90878 -4.825013,-4.10462 -3.137826,3.52201 -4.22103,8.3171 -5.861639,12.62538 -1.703865,5.18916 -3.266782,10.52172 -3.0162,16.04776 -0.16505,2.83305 -0.270605,5.66012 0.725501,8.37041 1.282942,6.34207 3.717046,12.36997 5.168714,18.65648 1.163611,5.0292 0.868114,10.38584 -1.295953,15.11176 -1.804605,4.94048 -4.312351,9.56182 -7.030112,14.04422 -1.047191,2.25092 -2.547537,4.42319 -3.069174,6.85696 0.266854,0.84781 1.151264,2.38852 2.191256,1.98476 0.727474,-0.48093 0.571191,-2.54385 1.556097,-1.13252 3.834584,3.042 8.593983,4.63204 12.857259,6.96818 5.447123,2.65702 11.021118,5.23795 15.583982,9.31855 5.587431,3.95446 10.035976,9.22232 15.553523,13.26576 3.997883,3.34511 9.229799,6.0578 14.5777,5.28786 6.140961,-1.52138 12.592476,-1.58319 18.76312,-0.18283 5.245748,0.78764 10.637958,0.96976 15.908628,0.37823 3.71472,-0.69438 6.38693,-3.83924 8.36868,-6.84175 3.12821,-5.81 5.19521,-12.56344 10.11199,-17.17192 2.11083,-1.71045 5.48182,-1.47009 7.12719,-3.76124 0.98081,-3.23554 -0.22077,-6.67474 -0.78731,-9.8905 -1.38213,-5.19343 -2.64458,-10.55925 -5.30089,-15.27355 -2.63324,-3.67317 -6.30082,-6.57221 -8.28353,-10.72024 -4.04553,-6.741 -7.82425,-13.64363 -11.05738,-20.813 -2.45814,-4.61816 -5.18959,-9.09572 -7.21908,-13.92853 -1.17607,-2.31031 -1.75324,-4.88532 -3.01666,-7.16967 -0.6864,-2.32676 -1.44624,-4.92205 -3.14823,-6.73543 -2.004072,-1.26655 -4.018699,1.2711 -6.151333,0.76405 -1.764861,-0.16637 -4.653555,0.21368 -5.125323,-2.09981 -0.30234,-1.3809 -2.481615,-2.17079 -1.712765,-3.74354 0.715727,-1.47383 1.131681,-3.61321 3.029643,-3.94178 1.964587,-1.15861 3.467675,-2.94273 5.101133,-4.4899 -0.690854,-4.52138 -0.674968,-9.14468 0.636926,-13.55636 1.014,-4.67106 2.776559,-9.23924 4.147379,-13.73109 -0.7724,-0.27982 -2.149063,0.19446 -2.624319,-0.41182 2.066629,-2.01083 5.030769,-3.36855 5.823879,-6.40031 1.49331,-4.29909 2.15168,-9.53156 -0.39648,-13.565252 -3.1734,-4.196146 -7.157945,-7.861755 -9.250088,-12.796104 -0.998654,-1.999657 -1.896242,-4.071739 -2.91746,-6.044332 -3.522411,-0.255871 -7.21492,0.372578 -9.975757,2.728066 -1.756497,1.662234 -4.263848,2.322867 -6.567223,1.498097 -5.130625,-1.11951 -9.510233,-5.033473 -14.957065,-4.643292 z"
         style="opacity:1;vector-effect:none;fill:#53536c;fill-opacity:1;stroke:none;stroke-width:0.66499996;stroke-linecap:round;stroke-linejoin:round;stroke-miterlimit:4;stroke-dasharray:none;stroke-dashoffset:0;stroke-opacity:1" />
      <path
         inkscape:connector-curvature="0"
         id="path26"
         d="m 20.066794,236.43249 c -0.03545,0.005 -0.05149,0.0408 -0.07354,0.0644 -0.04935,0.0602 -0.107357,0.11403 -0.173736,0.15474 -0.02681,0.0225 -0.02081,0.0707 0.01134,0.0853 0.02572,0.013 0.05526,0.002 0.08193,-0.003 0.09178,-0.0213 0.160354,-0.0986 0.193212,-0.18408 0.01057,-0.0287 0.03035,-0.0621 0.01152,-0.0917 -0.0098,-0.0178 -0.03089,-0.0271 -0.05073,-0.0256 z"
         style="opacity:1;vector-effect:none;fill:#53536c;fill-opacity:1;stroke:none;stroke-width:0.66499996;stroke-linecap:round;stroke-linejoin:round;stroke-miterlimit:4;stroke-dasharray:none;stroke-dashoffset:0;stroke-opacity:1" />
      <path
         inkscape:connector-curvature="0"
         id="path28"
         d="m 29.373893,75.912286 c -1.407369,0.230034 -2.700541,1.187188 -3.268491,2.512123 -0.629439,1.168839 -1.537214,2.137476 -2.428477,3.105163 -2.35082,3.100613 -4.03287,6.631837 -5.919785,10.017787 -1.621499,3.23415 -3.154231,6.584124 -3.829581,10.160131 -0.521441,3.36822 -0.356513,6.80418 -0.09867,10.18888 0.407198,3.7453 1.25796,7.49583 3.066988,10.83052 1.529412,2.9477 3.034214,5.97269 5.32546,8.41936 1.279115,1.44269 2.298084,3.09689 3.574711,4.53634 2.424035,1.74193 4.395606,4.02303 6.708451,5.9041 1.036786,0.91783 2.186614,1.69093 3.393234,2.36152 1.697373,1.28935 2.381511,3.46317 2.874245,5.45066 0.884277,3.78774 1.643491,7.62023 1.879894,11.51186 0.283022,2.75153 0.345318,5.55592 1.03941,8.24465 0.07747,0.66529 0.810122,0.6215 1.304769,0.56697 0.727813,-0.01 1.088644,-0.83099 1.82459,-0.85963 0.567759,-0.0859 1.391,0.0576 1.615993,-0.66041 0.479997,-1.02425 0.42137,-2.23841 0.9779,-3.2226 1.295749,-1.32712 1.645037,-3.24577 2.177534,-4.95604 1.291934,-4.44356 1.284875,-9.12232 2.376744,-13.60318 0.297053,-1.37522 0.692219,-2.75734 0.736762,-4.16253 0.552722,-0.53198 0.953174,-1.26123 1.041715,-2.04581 0.564705,-3.85823 1.658704,-7.65831 3.428918,-11.13977 0.3318,-0.49406 0.224895,-1.10436 -0.158533,-1.53088 -0.469729,-0.72305 -0.438854,-1.66335 -1.030674,-2.32919 -1.648796,-2.13611 -3.701275,-3.95745 -5.912657,-5.49463 -1.52395,-0.90029 -3.125838,-1.83341 -4.028199,-3.41701 -1.681105,-2.77865 -3.485867,-5.4854 -5.453539,-8.06829 -1.685682,-2.40725 -2.919606,-5.10001 -4.011303,-7.81672 -0.45978,-1.658165 -0.259638,-3.412617 -0.272534,-5.114104 0.155078,-3.709991 0.356246,-7.463243 1.302171,-11.066458 0.211182,-0.548481 0.37108,-1.362985 0.981646,-1.565756 0.354095,0.80546 -0.05335,1.716431 -0.135511,2.54717 -0.937729,4.040158 -1.868678,8.20312 -1.292731,12.370287 0.390245,2.789881 1.325023,5.538771 2.8492,7.913811 0.221165,0.41304 0.91218,0.88982 1.239896,0.32707 0.507143,-1.41661 0.228939,-3.01156 0.800391,-4.41826 1.645198,-4.138195 4.023759,-7.92651 6.149676,-11.826825 1.263279,-2.362674 2.659009,-4.6725 3.710863,-7.137702 -0.15032,-0.363445 -0.745487,-0.268221 -1.063839,-0.390702 -2.058257,-0.220321 -3.606496,-1.722035 -5.127292,-2.983759 -0.944737,-0.814536 -2.275909,-1.282774 -3.4892,-0.812006 -1.4838,0.521398 -2.92381,1.45915 -4.557813,1.228989 -2.796157,-0.199916 -4.976892,-2.150941 -7.379298,-3.366741 -0.290669,-0.125566 -0.603004,-0.221649 -0.923039,-0.208388 z"
         style="opacity:1;vector-effect:none;fill:#53536c;fill-opacity:1;stroke:none;stroke-width:0.66499996;stroke-linecap:round;stroke-linejoin:round;stroke-miterlimit:4;stroke-dasharray:none;stroke-dashoffset:0;stroke-opacity:1" />
      <path
         inkscape:connector-curvature="0"
         id="path30"
         d="m 92.978802,77.703002 c -0.20524,0.09266 -0.02537,0.387543 -0.0021,0.546105 0.913386,2.553385 2.330701,4.899554 3.186721,7.475252 0.243961,1.062823 1.00798,1.903888 1.619027,2.777476 1.169247,1.501265 2.36654,3.000754 3.78075,4.281001 0.82532,0.65223 1.67934,1.299014 2.25414,2.198497 0.33062,0.428794 0.49552,0.99223 0.90979,1.350764 0.40395,0.222745 0.74508,-0.221895 1.00262,-0.469757 0.63042,-0.583361 0.5849,-1.505474 0.49688,-2.286111 -0.29731,-2.717091 -0.827,-5.550697 -2.49085,-7.794403 -0.85801,-1.205254 -2.05889,-2.092425 -3.26829,-2.916015 -2.32014,-1.604732 -4.519491,-3.385505 -6.910578,-4.887566 -0.185947,-0.09671 -0.367247,-0.241813 -0.578125,-0.275243 z"
         style="opacity:1;vector-effect:none;fill:#53536c;fill-opacity:1;stroke:none;stroke-width:0.66499996;stroke-linecap:round;stroke-linejoin:round;stroke-miterlimit:4;stroke-dasharray:none;stroke-dashoffset:0;stroke-opacity:1" />
      <path
         inkscape:connector-curvature="0"
         id="path32"
         d="m 57.1677,148.47485 c -0.579586,0.16853 -0.517578,0.98734 -0.800383,1.4195 -1.111843,2.8725 -2.643521,5.59027 -3.477506,8.56433 -0.240141,1.86214 -2.440392,2.77872 -2.555928,4.6811 -0.08149,0.54903 -0.826603,0.52439 -0.88278,1.10035 0.0061,0.9219 -0.564726,1.69778 -1.184407,2.33711 -0.258106,0.21455 -0.60103,0.92112 -0.04026,0.97143 0.930595,-0.16247 1.780177,-0.66688 2.736781,-0.7595 2.346362,-0.63119 4.307822,-2.18724 6.164982,-3.68901 0.95966,-0.82125 1.906728,-1.78736 2.129848,-3.08638 0.704287,-2.3143 1.077117,-4.7635 0.789112,-7.17781 -0.446198,-1.50879 -1.147762,-3.02539 -2.297059,-4.12687 -0.166593,-0.12453 -0.369184,-0.23419 -0.5824,-0.23425 z"
         style="opacity:1;vector-effect:none;fill:#53536c;fill-opacity:1;stroke:none;stroke-width:0.66499996;stroke-linecap:round;stroke-linejoin:round;stroke-miterlimit:4;stroke-dasharray:none;stroke-dashoffset:0;stroke-opacity:1" />
      <path
         inkscape:connector-curvature="0"
         id="path34"
         d="m 54.041783,144.26657 c -0.189114,0.0295 -0.227103,0.26974 -0.303816,0.41122 -0.405074,1.1043 -0.648631,2.2603 -0.882991,3.41057 -0.665242,3.38727 -1.271056,6.78701 -1.976184,10.16559 -0.12124,0.62541 -0.316314,1.23885 -0.396962,1.87187 -0.01683,0.116 0.128987,0.19401 0.204475,0.0908 0.509736,-0.46281 0.878851,-1.06298 1.116142,-1.70635 0.275302,-0.67353 0.432991,-1.38532 0.571246,-2.09715 0.184542,-0.78329 0.418709,-1.59636 0.987597,-2.19275 0.444331,-0.62202 0.712931,-1.34765 1.004446,-2.04881 0.518909,-1.34713 0.974415,-2.72055 1.342573,-4.11661 0.156223,-0.62674 0.269083,-1.32766 -0.03932,-1.92863 -0.291899,-0.54537 -0.653111,-1.05897 -1.079066,-1.50831 -0.156684,-0.14353 -0.322765,-0.33389 -0.54814,-0.35143 z"
         style="opacity:1;vector-effect:none;fill:#373748;fill-opacity:1;stroke:none;stroke-width:0.66499996;stroke-linecap:round;stroke-linejoin:round;stroke-miterlimit:4;stroke-dasharray:none;stroke-dashoffset:0;stroke-opacity:1" />
      <path
         inkscape:connector-curvature="0"
         id="path36"
         d="m 79.839171,158.27294 c -1.608389,0.13489 -3.17354,0.59302 -4.69863,1.10232 -0.563052,0.18877 -1.229132,0.52334 -1.285264,1.19328 -0.09558,1.20175 -0.142197,2.40439 -0.425553,3.5788 -0.692499,3.02089 -1.809112,5.95551 -3.339795,8.65377 -0.601398,0.96842 -1.219092,2.08344 -2.344849,2.50902 -1.015365,0.39518 -2.299996,0.43534 -3.158146,-0.3373 -0.402381,-0.40992 -0.955421,-0.78828 -1.558838,-0.61598 -0.747493,0.22323 -1.628219,0.1171 -2.236673,-0.38914 -0.322961,-0.3007 -0.291746,-0.80892 -0.637784,-1.0992 -0.675955,-0.76307 -1.748536,-1.07354 -2.319335,-1.92798 -0.457229,-0.80779 -0.1339,-1.83746 -0.609563,-2.63558 -0.196691,-0.17834 -0.503369,-0.26465 -0.554759,-0.56769 -0.188323,-0.56468 -0.05278,-1.19849 -0.278998,-1.74835 -0.275484,-0.34489 -0.77774,-0.11462 -1.123604,-0.0275 -1.458195,0.4604 -2.597703,1.53665 -3.981579,2.14405 -1.117777,0.26216 -2.172269,0.75085 -3.249914,1.14191 -1.967315,0.75575 -3.937405,1.61026 -6.045859,1.85989 -0.476007,0.0682 -1.001236,-0.004 -1.44213,0.21235 -0.199938,0.23402 0.05452,0.56017 0.08907,0.81415 0.719288,2.12063 1.555993,4.20521 2.477664,6.24297 0.868463,2.33647 1.146016,4.86406 2.125739,7.16591 0.155017,0.2909 0.333386,0.78142 0.756267,0.66688 3.67221,-0.41399 7.386378,-0.82346 10.90019,-2.03016 2.020758,-0.67682 4.099303,-1.15174 6.132131,-1.78644 2.447709,-0.77121 4.629166,-2.17437 7.030191,-3.0591 0.781881,-0.27877 1.592718,-0.48327 2.349259,-0.83777 2.677433,-1.0887 5.260623,-2.38752 7.880353,-3.60379 0.647147,-0.31903 1.33936,-0.50609 2.023523,-0.71978 0.589579,-0.33341 0.894707,-1.00175 1.145921,-1.60202 0.370393,-1.14647 0.25436,-2.3795 0.189751,-3.56302 -0.266613,-2.95564 -0.859335,-5.90046 -1.925688,-8.67542 -0.314605,-0.70082 -0.592405,-1.51792 -1.263883,-1.95924 -0.187174,-0.10884 -0.40985,-0.10591 -0.619217,-0.0998 z"
         style="opacity:1;vector-effect:none;fill:#800000;fill-opacity:1;stroke:none;stroke-width:0.66499996;stroke-linecap:round;stroke-linejoin:round;stroke-miterlimit:4;stroke-dasharray:none;stroke-dashoffset:0;stroke-opacity:1" />
      <path
         inkscape:connector-curvature="0"
         id="path38"
         d="m 39.170538,172.35286 c -0.239276,0.0984 -0.137594,0.45406 -0.15676,0.65917 0.195305,1.65639 0.996365,3.15656 1.484048,4.73375 0.578445,1.59821 0.71392,3.34206 1.521475,4.85959 0.294297,0.5277 0.553271,1.14299 1.076183,1.48426 0.199596,0.13087 0.392707,-0.0731 0.357116,-0.27973 -0.02955,-1.34565 -0.499642,-2.63438 -0.908071,-3.90236 -0.836378,-2.38058 -1.917497,-4.66519 -2.951846,-6.96381 -0.128145,-0.18356 -0.162224,-0.54604 -0.422145,-0.59087 z"
         style="opacity:1;vector-effect:none;fill:#800000;fill-opacity:1;stroke:none;stroke-width:0.66499996;stroke-linecap:round;stroke-linejoin:round;stroke-miterlimit:4;stroke-dasharray:none;stroke-dashoffset:0;stroke-opacity:1" />
      <path
         inkscape:connector-curvature="0"
         id="path40"
         d="m 140.02783,245.10433 c -1.58905,0.14636 -3.15459,0.63101 -4.56956,1.36507 -1.74764,0.9874 -3.09827,2.52909 -4.32998,4.08401 -0.38739,0.46721 -0.74444,1.10991 -0.42524,1.71306 0.86865,2.05246 2.21473,3.85383 3.28545,5.8 1.15241,1.89576 2.14457,3.88575 3.32003,5.76649 0.34991,0.57663 0.97144,1.07274 1.68651,0.91407 0.98466,-0.0938 1.81026,-0.74245 2.61694,-1.26022 1.41898,-0.99983 2.6521,-2.26857 3.62938,-3.69888 -0.42585,-1.94688 -1.00527,-3.8766 -1.50621,-5.81208 -0.77125,-2.81153 -1.56443,-5.63809 -2.76553,-8.30114 -0.13395,-0.31467 -0.37334,-0.65942 -0.76729,-0.57172 -0.0582,-0.002 -0.11633,5.3e-4 -0.1745,0.001 z"
         style="opacity:1;vector-effect:none;fill:#6c5353;fill-opacity:1;stroke:none;stroke-width:0.66499996;stroke-linecap:round;stroke-linejoin:round;stroke-miterlimit:4;stroke-dasharray:none;stroke-dashoffset:0;stroke-opacity:1" />
      <path
         inkscape:connector-curvature="0"
         id="path42"
         d="m 148.36822,267.69888 c -0.27153,-0.004 -0.4155,0.28051 -0.39405,0.52067 -0.17626,0.3855 -0.62341,0.54129 -0.96877,0.73692 -1.57741,0.75509 -3.3102,1.21676 -5.06308,1.27225 -0.60037,0.0675 -1.25935,0.0754 -1.78062,0.41867 -0.43751,0.32666 -0.3705,0.95938 -0.1548,1.39595 0.54843,1.10937 1.49089,1.9609 2.4363,2.73179 1.63462,1.28969 3.50929,2.2963 5.53222,2.81607 1.22101,0.33697 2.40172,0.86762 3.37661,1.68251 1.11624,0.90363 2.0713,1.99864 3.26855,2.8039 1.87279,1.30947 4.00967,2.35712 6.30739,2.59471 0.93541,0.0243 1.96221,0.0268 2.7665,-0.5203 0.49118,-0.36695 0.77263,-0.9775 0.82843,-1.57882 0.0269,-0.39608 0.0348,-0.87805 -0.31151,-1.14726 -0.29659,-0.17053 -0.66576,-0.12698 -0.97055,-0.28673 -1.23494,-0.53576 -2.3003,-1.39875 -3.35859,-2.22642 -2.31208,-1.88105 -4.42577,-3.9956 -6.44911,-6.18072 -1.00266,-1.07939 -1.9013,-2.24689 -2.85833,-3.36526 -0.54818,-0.58441 -1.09718,-1.20917 -1.81771,-1.58334 -0.12227,-0.0527 -0.25443,-0.0916 -0.38888,-0.0846 z"
         style="opacity:1;vector-effect:none;fill:#6c5353;fill-opacity:1;stroke:none;stroke-width:0.66499996;stroke-linecap:round;stroke-linejoin:round;stroke-miterlimit:4;stroke-dasharray:none;stroke-dashoffset:0;stroke-opacity:1" />
      <path
         inkscape:connector-curvature="0"
         id="path44"
         d="m 26.664642,248.90784 c -0.535285,0.0418 -0.685148,0.6769 -0.783322,1.10425 -0.306293,1.72828 -0.360971,3.49128 -0.42339,5.24227 -0.03749,1.41688 -0.01593,2.8561 0.398361,4.22433 0.733688,2.53893 1.687395,5.00798 2.592764,7.48909 0.74299,1.89243 1.418058,3.83664 2.491809,5.574 0.354521,0.55177 0.884793,1.17177 1.613178,1.09347 1.086511,-0.11938 2.156507,-0.36533 3.242625,-0.49614 1.03828,-0.17666 2.107345,-0.25167 3.11069,-0.58605 0.219475,-0.049 0.219514,-0.28673 0.109514,-0.43974 -1.0208,-2.12619 -2.345598,-4.10332 -3.170317,-6.32222 -0.726422,-1.93388 -1.312638,-4.01697 -1.068856,-6.09621 0.0882,-0.81735 0.500576,-1.54994 0.658127,-2.34767 0.07966,-0.84708 -0.303096,-1.67466 -0.775067,-2.35619 -1.093211,-1.39191 -2.462829,-2.53917 -3.835863,-3.64439 -1.113039,-0.84434 -2.240868,-1.70202 -3.512143,-2.29549 -0.205632,-0.0823 -0.423955,-0.1526 -0.64811,-0.14331 z"
         style="opacity:1;vector-effect:none;fill:#6c5353;fill-opacity:1;stroke:none;stroke-width:0.66499996;stroke-linecap:round;stroke-linejoin:round;stroke-miterlimit:4;stroke-dasharray:none;stroke-dashoffset:0;stroke-opacity:1" />
      <path
         inkscape:connector-curvature="0"
         id="path46"
         d="m 34.054264,244.5169 c -0.41383,0.0353 -0.892199,0.16141 -1.153848,0.5049 -0.125709,0.42207 0.251968,0.79619 0.452967,1.12955 1.521377,2.0762 3.30432,3.95726 4.761206,6.07829 0.244956,0.31686 0.329276,0.70699 0.45839,1.0727 0.231561,0.27053 0.584745,-0.0499 0.788911,-0.20171 1.220957,-0.98764 2.182638,-2.34917 3.661799,-2.97844 0.340757,-0.14358 0.596469,-0.55816 0.366503,-0.90291 -0.468164,-0.66002 -1.223052,-1.04105 -1.887352,-1.47311 -1.743906,-0.99452 -3.554957,-1.87257 -5.389374,-2.68662 -0.660644,-0.24792 -1.34062,-0.54909 -2.059202,-0.54265 z"
         style="opacity:1;vector-effect:none;fill:#6c5353;fill-opacity:1;stroke:none;stroke-width:0.66499996;stroke-linecap:round;stroke-linejoin:round;stroke-miterlimit:4;stroke-dasharray:none;stroke-dashoffset:0;stroke-opacity:1" />
      <path
         inkscape:connector-curvature="0"
         id="path48"
         d="m 58.419962,129.12808 c -0.474549,0.29672 -0.640781,0.92105 -0.924835,1.38153 -0.993449,2.08228 -1.876824,4.23386 -2.465004,6.46752 -0.197487,1.15668 -0.362852,2.31336 -0.736319,3.4276 -0.280406,0.84481 0.277807,1.63121 0.816557,2.22548 0.780158,0.94328 1.703342,1.81662 2.239785,2.92978 0.692769,1.56674 1.924113,2.81379 2.853492,4.23537 0.307747,0.39727 0.527457,0.8596 0.74196,1.30428 0.539663,0.37509 1.278527,0.0238 1.849501,0.2804 0.368594,0.42803 0.07172,1.06331 0.02773,1.55302 -0.63423,3.00171 -1.854231,5.87939 -2.202907,8.94306 0.07174,1.17662 -0.711012,2.11989 -1.408174,2.97556 -0.468492,0.65286 -1.165016,1.25257 -1.277059,2.0856 0.02585,0.41255 0.556734,0.85524 0.930871,0.52126 1.010184,-0.80849 1.5919,-2.0178 2.274003,-3.09115 0.362456,-0.58332 0.754613,-1.37672 1.52441,-1.44579 0.309698,0.11399 0.09457,0.56223 0.04484,0.78558 -0.950875,2.40302 -2.733987,4.35681 -3.856823,6.67082 0.0073,0.28454 0.466111,0.2818 0.681892,0.33011 0.816645,0.0195 1.704687,0.20729 2.474161,-0.14514 0.994249,-0.65865 1.368883,-1.87483 1.951313,-2.85785 0.63178,-1.13491 1.170485,-2.35945 2.060826,-3.32151 0.135263,-0.19695 0.386795,-0.091 0.281284,0.14883 -0.602123,1.65169 -1.542481,3.19167 -2.398943,4.73622 -0.55128,0.97235 -1.155022,1.91477 -1.833858,2.80087 -0.222327,0.38719 0.287543,0.63175 0.593833,0.69059 0.719016,0.18753 1.454118,0.45301 2.19937,0.45371 0.66965,-0.40103 0.965115,-1.20374 1.361665,-1.84152 1.251186,-2.40469 2.245955,-4.97403 2.718768,-7.64463 0.155861,-0.46062 0.19194,-1.04958 0.585277,-1.37573 0.32698,0.21557 0.202936,0.72518 0.225931,1.06339 -0.227307,2.5716 -0.995172,5.07616 -1.871356,7.49623 -0.338164,1.04179 -0.946333,1.97598 -1.268431,3.01941 -0.08988,0.40585 0.43525,0.34818 0.659913,0.2208 1.199007,-0.57876 1.662446,-1.93532 2.274136,-3.02189 1.314691,-2.6667 2.473923,-5.46695 2.795593,-8.44853 0.211939,-1.88202 0.312346,-3.85367 -0.277019,-5.67967 -0.388794,-0.98139 -1.192958,-1.71661 -1.672793,-2.65071 -2.397184,-4.0713 -4.507622,-8.30446 -6.582916,-12.54648 -1.914263,-3.9289 -3.224302,-8.11153 -4.985615,-12.10632 -0.118769,-0.17118 -0.179446,-0.51462 -0.405056,-0.5701 z"
         style="opacity:1;vector-effect:none;fill:#deaa87;fill-opacity:1;stroke:none;stroke-width:0.66499996;stroke-linecap:round;stroke-linejoin:round;stroke-miterlimit:4;stroke-dasharray:none;stroke-dashoffset:0;stroke-opacity:1" />
      <path
         inkscape:connector-curvature="0"
         id="path50"
         d="m 97.001615,137.97202 c -0.316876,0.1079 -0.06829,0.55803 -0.109295,0.78771 0.1475,1.82914 0.519547,3.64356 0.559578,5.47613 -0.180991,1.38488 -1.276985,2.39988 -2.061424,3.47571 -0.749723,0.85814 -1.450099,1.81518 -2.430351,2.4159 -0.716389,0.33016 -1.550969,0.36871 -2.231671,0.76921 -0.29973,0.29638 0.128183,0.65147 0.428485,0.68853 1.224846,0.31953 2.529747,0.32913 3.777618,0.14381 1.044077,-0.23802 2.151007,-0.69402 2.775206,-1.60421 0.207505,-0.3785 0.07362,-1.03615 0.563301,-1.20831 0.350591,0.11983 0.184271,0.61709 0.143224,0.89207 -0.266412,0.98172 -0.76559,2.06859 -1.811004,2.40661 -1.596279,0.65343 -3.344902,0.97689 -5.061688,0.77565 -0.703879,-0.0657 -1.524794,0.0167 -1.943222,0.67029 -0.227142,0.19057 -0.260842,0.72922 0.142338,0.69354 1.468316,0.0318 2.709053,0.98138 4.134122,1.19047 0.724313,0.14291 1.048597,-0.66328 1.58459,-0.96848 0.589899,-0.26991 1.224121,-0.45418 1.756227,-0.84689 1.263373,-0.74704 2.397213,-1.73104 3.735781,-2.33586 0.17113,-0.0784 0.24369,0.022 0.0984,0.14337 -1.02919,1.30593 -2.497901,2.16236 -3.9142,2.98569 -1.606502,0.87475 -3.337271,1.60893 -5.188598,1.70347 -0.390369,0.0342 -1.038783,0.19941 -0.918334,0.72275 0.255238,0.61849 1.013963,0.79714 1.566069,1.05989 1.405371,0.50646 2.996874,0.74308 4.416816,0.14961 1.82023,-0.62494 3.377747,-1.91168 4.460387,-3.48763 0.9157,-1.45356 1.051,-3.22324 0.99843,-4.89773 -0.0369,-0.75935 0.078,-1.54381 -0.0491,-2.28841 -0.98446,-2.8366 -2.37492,-5.52951 -4.015758,-8.04027 -0.397735,-0.52522 -0.762543,-1.15873 -1.361234,-1.47056 -0.01476,-0.002 -0.02978,-0.003 -0.04469,-0.002 z"
         style="opacity:1;vector-effect:none;fill:#deaa87;fill-opacity:1;stroke:none;stroke-width:0.66499996;stroke-linecap:round;stroke-linejoin:round;stroke-miterlimit:4;stroke-dasharray:none;stroke-dashoffset:0;stroke-opacity:1" />
      <path
         inkscape:connector-curvature="0"
         id="path52"
         d="m 104.2145,151.94113 c -0.71789,1.20512 -1.26526,2.51977 -1.83976,3.80224 -0.17011,0.53823 -0.49022,1.1081 -0.37613,1.68342 0.36546,0.60384 1.26764,0.50816 1.64669,-0.0317 0.6563,-0.85841 0.5401,-2.02297 0.63513,-3.03932 0.002,-0.7985 0.10347,-1.62376 -0.006,-2.40917 l -0.0553,-0.008 z"
         style="opacity:1;vector-effect:none;fill:#deaa87;fill-opacity:1;stroke:none;stroke-width:0.66499996;stroke-linecap:round;stroke-linejoin:round;stroke-miterlimit:4;stroke-dasharray:none;stroke-dashoffset:0;stroke-opacity:1" />
      <path
         inkscape:connector-curvature="0"
         id="path54"
         d="m 69.194669,6.6519665 c -1.271305,0.055691 -2.349593,0.8662003 -3.362405,1.5573023 -3.150071,2.2975172 -5.282059,5.6668102 -7.010286,9.0989912 -1.291122,2.581385 -2.613393,5.2024 -3.163797,8.060435 -0.532898,2.35958 -1.108337,4.72323 -1.239983,7.147826 -0.32139,4.207132 -0.566225,8.430355 -0.452435,12.650872 0.208677,3.161713 1.207672,6.292395 2.935393,8.953529 0.776044,1.215565 1.897047,2.154706 3.103689,2.917103 0.425919,0.265888 0.749427,0.644964 0.998869,1.069224 1.087191,0.919495 2.481709,1.374065 3.789248,1.885849 1.833933,0.715293 3.795369,0.963123 5.690561,1.441156 1.361948,0.276622 2.457905,1.208884 3.764489,1.633855 1.681723,0.464998 3.35998,-0.423053 4.672618,-1.404212 1.332714,-0.94207 2.498384,-2.088192 3.67144,-3.214595 0.713394,-0.583568 1.698639,-0.258982 2.53297,-0.303956 1.963,0.08732 3.880909,-0.567944 5.624788,-1.413801 1.236337,-0.604248 2.335673,-1.591503 2.767547,-2.932763 0.445145,-1.337604 0.158358,-2.779745 0.02188,-4.145788 -0.503658,-3.299963 -0.46192,-6.649929 -0.386448,-9.978112 0.08436,-2.080305 0.775706,-4.091469 0.774893,-6.183511 0.13212,-3.713983 -0.111164,-7.500683 -1.239565,-11.061358 -0.89233,-2.414844 -2.213754,-4.643589 -3.4835,-6.874225 C 88.270619,14.064692 87.446989,12.457272 86.17719,11.215817 84.041138,9.3215263 81.323777,8.2125827 78.596158,7.4757525 77.163649,7.063533 75.673679,6.9472431 74.188721,6.9791542 72.968389,6.9303989 71.729438,7.0540329 70.52335,6.8466662 70.097646,6.7024921 69.643796,6.6442899 69.194671,6.6519665 Z M 88.400167,22.533263 c 0.530158,0.495708 0.675536,1.274524 0.926742,1.937262 0.734754,2.520671 1.255517,5.126774 1.346105,7.75406 0.0099,0.946965 -0.125624,2.17306 -1.122053,2.603519 -0.691586,0.350687 -1.545971,0.48922 -2.247159,0.08348 -0.77996,-0.456502 -1.612204,-0.97096 -2.052458,-1.790057 -0.415366,-1.043731 -0.293962,-2.213846 -0.241458,-3.304437 0.105103,-1.492575 1.427313,-2.409544 2.28169,-3.491138 0.585755,-0.679113 0.998079,-1.532804 0.938559,-2.447809 0.06217,-0.430749 -0.047,-0.968982 0.170032,-1.344884 z m -22.222016,4.939176 c 1.140609,-0.08424 2.069857,0.769551 2.804118,1.54683 1.231934,1.523495 1.821349,3.539422 1.702512,5.484249 0.0336,1.241327 -0.90831,2.309297 -2.057985,2.67588 -1.028314,0.331927 -2.144649,0.528235 -3.215447,0.392454 -0.948068,-0.2369 -1.57118,-1.101932 -2.025023,-1.902995 -0.967988,-1.968542 -1.092324,-4.398198 -0.165544,-6.411227 0.458337,-1.062323 1.545423,-1.776627 2.701901,-1.778257 0.0871,-0.0046 0.167222,-0.0062 0.255468,-0.0069 z m 11.23255,2.462508 c 0.940652,0.167056 1.613961,0.958755 2.231228,1.626923 0.503833,0.652492 1.133742,1.39608 1.076894,2.264709 -0.258125,1.157015 -1.345909,1.886172 -2.28382,2.495476 -0.342368,0.272074 -0.83236,0.391732 -1.202224,0.101976 -0.434242,-0.276601 -1.067578,-0.510548 -1.212117,-1.057553 0.08277,-0.410583 0.654105,-0.421995 0.978662,-0.457544 1.039212,-0.04422 2.125837,-0.565748 2.673432,-1.468951 0.219765,-0.649988 -0.491218,-1.046945 -0.846945,-1.461722 -0.592537,-0.621311 -1.286581,-1.175345 -1.785778,-1.870739 -0.0384,-0.193667 0.264927,-0.174567 0.370668,-0.172575 z m 7.346518,10.335898 c 1.663444,-0.0071 3.344307,0.02342 4.935784,0.550026 -0.714849,0.966446 -1.545728,1.848213 -2.1296,2.908991 -0.726157,1.078735 -1.118211,2.470655 -2.246569,3.221244 -0.774837,0.466764 -1.614786,-0.213569 -2.092454,-0.815838 -0.562957,-0.591881 -0.946463,-1.356725 -1.565098,-1.887535 -0.282136,0.01865 -0.38223,0.447559 -0.60034,0.59808 -0.650705,0.700487 -1.164002,1.572475 -1.987248,2.084938 -0.67528,0.19843 -1.267061,-0.365172 -1.823699,-0.667416 -0.38187,-0.208254 -0.681321,-0.531411 -1.012277,-0.789586 -0.380355,-0.02381 -0.43035,0.51893 -0.545161,0.784553 -0.286983,0.980977 -0.414824,2.150705 -1.326906,2.785089 -0.542634,0.369358 -1.133663,0.787696 -1.803922,0.820245 -0.529778,-0.203041 -0.780515,-0.807915 -1.073798,-1.247994 -0.33292,-0.526198 -0.463759,-1.125093 -0.617731,-1.715717 -0.157106,-0.441735 -0.669954,-0.15848 -0.872902,0.08275 -0.983337,0.922695 -1.387941,2.374244 -2.570184,3.092331 -0.409686,0.172336 -0.769096,-0.307321 -1.083384,-0.496041 -1.399873,-1.216766 -2.684425,-2.590249 -3.712863,-4.136482 -0.221986,-0.295283 0.292473,-0.390168 0.477898,-0.443977 1.029679,-0.215516 2.10603,-0.05317 3.134516,-0.339396 3.124152,-0.727729 5.941025,-2.348077 8.97337,-3.341389 2.313985,-0.85789 4.815628,-0.870812 7.24929,-1.005988 0.764106,-0.02701 1.528699,-0.04024 2.293278,-0.04089 z"
         style="opacity:1;vector-effect:none;fill:#deaa87;fill-opacity:1;stroke:none;stroke-width:0.66499996;stroke-linecap:round;stroke-linejoin:round;stroke-miterlimit:4;stroke-dasharray:none;stroke-dashoffset:0;stroke-opacity:1" />
      <path
         inkscape:connector-curvature="0"
         id="path56"
         d="m 84.699588,41.146973 c -0.683893,0.02323 -1.381763,-0.01879 -2.052066,0.142002 -0.23454,0.05015 -0.228971,0.325427 -0.206979,0.511998 0.09004,0.669795 0.367808,1.297395 0.627537,1.915705 0.31183,0.66503 0.626787,1.349047 1.117081,1.904238 0.114895,0.13998 0.309555,0.257714 0.485796,0.15204 0.439722,-0.257667 0.722987,-0.705205 1.018731,-1.106551 0.568063,-0.863653 1.048356,-1.788623 1.419862,-2.753469 0.04219,-0.169952 0.164452,-0.375136 0.06445,-0.543078 -0.233886,-0.149209 -0.534431,-0.129442 -0.800121,-0.172405 -0.556278,-0.05601 -1.115904,-0.05251 -1.674296,-0.05048 z"
         style="opacity:1;vector-effect:none;fill:#ffffff;fill-opacity:1;stroke:none;stroke-width:0.66499996;stroke-linecap:round;stroke-linejoin:round;stroke-miterlimit:4;stroke-dasharray:none;stroke-dashoffset:0;stroke-opacity:1" />
      <path
         inkscape:connector-curvature="0"
         id="path58"
         d="m 79.872828,41.22603 c -0.774186,0.02363 -1.507288,0.342369 -2.170829,0.720792 -0.329941,0.212785 -0.707006,0.435049 -0.866331,0.81218 -0.09091,0.342609 0.10096,0.680961 0.224171,0.990619 0.337918,0.688459 0.765734,1.348822 1.333715,1.869813 0.15694,0.147659 0.416261,0.289248 0.611412,0.125727 0.455271,-0.388945 0.711435,-0.954399 0.9462,-1.492692 0.297442,-0.760187 0.512321,-1.585856 0.424485,-2.407639 -0.03213,-0.256064 -0.143608,-0.606867 -0.451298,-0.618225 -0.01717,-1.04e-4 -0.03436,-0.0016 -0.05152,-5.3e-4 z"
         style="opacity:1;vector-effect:none;fill:#ffffff;fill-opacity:1;stroke:none;stroke-width:0.66499996;stroke-linecap:round;stroke-linejoin:round;stroke-miterlimit:4;stroke-dasharray:none;stroke-dashoffset:0;stroke-opacity:1" />
      <path
         inkscape:connector-curvature="0"
         id="path60"
         d="m 74.770934,42.750554 c -0.730811,0.347443 -1.452226,0.719185 -2.157388,1.116806 -0.332677,0.188498 -0.675894,0.470549 -0.705988,0.881037 -0.07127,0.665503 0.120824,1.321329 0.23487,1.971278 0.118949,0.477858 0.193387,1.00466 0.517356,1.395137 0.190058,0.242988 0.563097,0.166195 0.755899,-0.03254 0.309324,-0.249127 0.542438,-0.582279 0.660223,-0.962443 0.461904,-1.286018 0.548875,-2.661068 0.730744,-4.004501 -0.0064,-0.116607 0.07006,-0.255696 0.004,-0.359246 -0.01217,-0.0067 -0.0263,-0.0085 -0.03969,-0.0055 z"
         style="opacity:1;vector-effect:none;fill:#ffffff;fill-opacity:1;stroke:none;stroke-width:0.66499996;stroke-linecap:round;stroke-linejoin:round;stroke-miterlimit:4;stroke-dasharray:none;stroke-dashoffset:0;stroke-opacity:1" />
      <path
         inkscape:connector-curvature="0"
         id="path62"
         d="m 69.092738,45.323119 c -0.413549,0.0091 -0.778346,0.243515 -1.175126,0.334587 -0.504984,0.162459 -1.030883,0.233434 -1.549506,0.340585 -0.316121,0.057 -0.587311,0.319892 -0.603988,0.64884 -0.03226,0.491263 0.130688,0.991037 0.405458,1.395402 0.207674,0.300543 0.5827,0.506862 0.951773,0.408535 0.42229,-0.09087 0.644104,-0.509892 0.902761,-0.812861 0.39956,-0.544589 0.833381,-1.062579 1.231228,-1.608105 0.09639,-0.166667 0.234497,-0.36939 0.175535,-0.569572 -0.06227,-0.143761 -0.200748,-0.145938 -0.338135,-0.137411 z"
         style="opacity:1;vector-effect:none;fill:#ffffff;fill-opacity:1;stroke:none;stroke-width:0.66499996;stroke-linecap:round;stroke-linejoin:round;stroke-miterlimit:4;stroke-dasharray:none;stroke-dashoffset:0;stroke-opacity:1" />
      <path
         inkscape:connector-curvature="0"
         id="path64"
         d="m 68.974932,31.441464 c -0.381603,0.02899 -0.684654,0.303305 -1.004922,0.484719 -0.938038,0.598112 -1.845897,1.267436 -2.855044,1.733439 -0.221629,0.1265 -0.577398,0.04968 -0.695304,0.326818 -0.126177,0.454899 0.166113,0.888215 0.429135,1.23348 0.36366,0.436303 0.78775,0.866156 1.329436,1.069578 0.484802,0.115028 0.975069,-0.08707 1.421747,-0.257305 0.587687,-0.254746 1.251669,-0.491643 1.629963,-1.042667 0.34395,-0.509889 0.306602,-1.152059 0.29809,-1.738892 -0.03277,-0.515167 -0.05488,-1.039987 -0.196453,-1.53883 -0.04647,-0.160009 -0.181264,-0.28761 -0.356648,-0.27034 z"
         style="opacity:1;vector-effect:none;fill:#ffffff;fill-opacity:1;stroke:none;stroke-width:0.66499996;stroke-linecap:round;stroke-linejoin:round;stroke-miterlimit:4;stroke-dasharray:none;stroke-dashoffset:0;stroke-opacity:1" />
      <path
         inkscape:connector-curvature="0"
         id="path66"
         d="m 65.686312,29.366974 c -0.681625,0.03207 -1.236345,0.570532 -1.512535,1.162624 -0.222557,0.451406 -0.279334,0.975723 -0.214747,1.47033 0.04153,0.239765 0.296968,0.377131 0.525714,0.325514 0.473985,-0.08496 0.860287,-0.406943 1.245629,-0.674066 0.391618,-0.31206 0.811295,-0.619125 1.088877,-1.043307 0.156461,-0.277456 0.04482,-0.627698 -0.183983,-0.829011 -0.213125,-0.240015 -0.508961,-0.414203 -0.837512,-0.410779 -0.03712,-0.0016 -0.07429,-0.0021 -0.111443,-0.0013 z"
         style="opacity:1;vector-effect:none;fill:#ff0000;fill-opacity:1;stroke:none;stroke-width:0.66499996;stroke-linecap:round;stroke-linejoin:round;stroke-miterlimit:4;stroke-dasharray:none;stroke-dashoffset:0;stroke-opacity:1" />
      <path
         inkscape:connector-curvature="0"
         id="path68"
         d="m 86.372006,29.013509 c -0.07179,0.215236 -0.04813,0.46468 -0.06199,0.694466 0.0021,0.696817 -0.01072,1.3975 0.06415,2.09093 0.100163,0.540761 0.309824,1.161614 0.849855,1.408062 0.335068,0.133303 0.718095,0.09251 1.060294,0.0061 0.350935,-0.11953 0.737092,-0.287681 0.926949,-0.624903 0.09201,-0.224994 -5.29e-4,-0.481753 -0.19413,-0.620096 -0.328697,-0.331351 -0.84114,-0.331378 -1.194906,-0.626597 -0.430228,-0.319781 -0.768149,-0.76727 -0.957461,-1.270852 -0.153964,-0.345577 -0.2725,-0.712057 -0.436652,-1.049224 -0.01098,-0.02476 -0.03741,-0.0052 -0.05611,-0.0078 z"
         style="opacity:1;vector-effect:none;fill:#ffffff;fill-opacity:1;stroke:none;stroke-width:0.66499996;stroke-linecap:round;stroke-linejoin:round;stroke-miterlimit:4;stroke-dasharray:none;stroke-dashoffset:0;stroke-opacity:1" />
      <path
         inkscape:connector-curvature="0"
         id="path70"
         d="m 88.805281,28.298179 c -0.330883,0.01717 -0.469665,0.385427 -0.518779,0.663806 -0.08749,0.477559 0.0028,1.065529 0.448325,1.339918 0.271651,0.155731 0.605634,0.08229 0.895033,0.02405 0.129529,-0.03415 0.31001,-0.138139 0.237122,-0.298815 -0.153318,-0.544002 -0.290293,-1.134274 -0.688731,-1.557899 -0.09959,-0.09659 -0.229741,-0.175606 -0.37297,-0.17105 z"
         style="opacity:1;vector-effect:none;fill:#ff0000;fill-opacity:1;stroke:none;stroke-width:0.66499996;stroke-linecap:round;stroke-linejoin:round;stroke-miterlimit:4;stroke-dasharray:none;stroke-dashoffset:0;stroke-opacity:1" />
      <path
         inkscape:connector-curvature="0"
         id="path72"
         d="m 60.905244,7.3988429 c -3.177307,0.1821765 -6.461665,1.0582963 -8.957326,3.1151741 -2.118622,1.700836 -3.226409,4.267094 -4.103711,6.76373 -2.076712,5.414993 -3.678619,11.050306 -6.531883,16.131222 -1.939713,3.496442 -3.917952,7.000806 -6.37464,10.165924 -1.330812,1.59226 -2.670342,3.263177 -4.458481,4.36273 -3.211573,1.139283 -6.239294,2.740261 -9.256467,4.314026 -1.51792,0.892715 -3.218347,1.581528 -4.480421,2.840196 -1.21016,1.605852 -1.970624,3.581376 -2.148123,5.58537 -0.135866,1.771904 0.91043,3.334208 1.721391,4.822809 0.592908,0.959911 1.274088,2.083052 2.502681,2.252353 2.717942,0.611865 5.537663,1.114147 7.941046,2.617883 2.566241,1.435171 4.104314,4.109958 6.569326,5.689169 1.551739,1.011605 3.094085,2.240272 4.958114,2.58563 1.683978,0.150148 3.356523,-0.639988 4.615397,-1.709653 0.401331,-0.445633 1.003896,-0.763588 1.598888,-0.492287 2.155674,0.68683 3.448613,2.788979 5.485037,3.687771 0.865037,0.09147 1.642888,-0.517896 2.425764,-0.803513 2.290984,-1.151025 4.659037,-2.400978 7.285466,-2.437421 3.401547,-0.16265 6.682369,1.112186 9.714701,2.524614 1.193408,0.700072 2.321189,1.544309 3.67317,1.930765 2.03581,0.658831 4.212156,1.132546 6.355924,0.867344 2.126671,-1.179452 4.011756,-2.774632 6.244117,-3.776215 1.455893,-0.782799 3.134214,-1.06765 4.547393,-1.925759 0.760442,-0.456679 0.774835,-1.50249 0.29287,-2.16961 -1.052115,-1.466348 -2.135322,-2.917965 -3.030146,-4.494049 -0.8906,-1.600298 -1.94659,-3.18435 -2.391058,-4.973296 -0.240083,-1.547272 0.107077,-3.132516 -0.07906,-4.680894 -0.282218,-0.530524 -1.041075,-0.17667 -1.464554,-0.02503 -2.213094,1.132597 -3.787335,3.203416 -6.066811,4.238882 -1.12672,0.571283 -2.424435,0.886351 -3.642169,0.428463 -0.482002,-0.126746 -1.049216,-0.30558 -1.415452,0.16541 -1.546503,1.418024 -3.126116,2.953644 -5.221526,3.495019 -4.05171,1.186219 -8.465542,-0.365977 -11.537905,-3.110339 -1.062109,-0.925113 -2.268355,-1.673338 -3.588914,-2.16317 -0.289861,-0.07806 -0.592066,-0.494945 -0.181269,-0.638307 1.37957,-0.654108 2.95152,0.01569 4.002334,0.980403 2.107374,2.019533 4.78015,3.629139 7.751641,3.82148 2.391254,0.183581 4.91409,-0.562567 6.562756,-2.367465 0.372796,-0.456115 1.139558,-0.976773 0.90999,-1.655101 -0.592349,-0.670237 -1.632045,-0.595767 -2.441604,-0.778846 -2.270477,-0.248129 -4.515819,-0.846053 -6.502162,-2.001324 -2.729151,-1.528659 -5.131364,-3.667482 -6.96082,-6.205757 -2.060016,-3.04143 -2.251101,-6.845647 -2.465959,-10.394453 -0.118581,-4.568957 -0.1934,-9.192556 0.755425,-13.685564 0.93485,-4.677029 2.490118,-9.216379 4.327348,-13.605986 1.216665,-2.695522 3.037123,-5.05436 4.979808,-7.2622681 C 63.133057,9.0442954 63.747522,8.3309343 63.134094,7.9328514 62.481163,7.471648 61.688638,7.3431449 60.905244,7.3988455 Z"
         style="opacity:1;vector-effect:none;fill:#440055;fill-opacity:1;stroke:none;stroke-width:0.66499996;stroke-linecap:round;stroke-linejoin:round;stroke-miterlimit:4;stroke-dasharray:none;stroke-dashoffset:0;stroke-opacity:1" />
      <path
         inkscape:connector-curvature="0"
         id="path74"
         d="m 79.120216,2.5640299 c -1.328605,-0.022539 -2.60644,0.4466868 -3.807114,0.9714334 -0.813911,0.3888253 -1.652894,0.7607286 -2.370468,1.3149601 -0.139536,0.074245 -0.159028,0.2704015 -0.0091,0.3413143 0.678077,0.3527208 1.462032,0.4148317 2.203588,0.5495981 1.924245,0.2982629 3.914857,0.4568899 5.689404,1.3156583 2.145945,1.0111306 4.1457,2.3076048 6.301348,3.2993369 0.158914,0.08063 0.405323,0.186579 0.522004,-0.01634 0.250728,-0.4760464 0.202653,-1.0429474 0.226968,-1.5649717 0.02848,-1.4212429 -0.490326,-2.894178 -1.589302,-3.8332602 -1.0776,-0.9486207 -2.468859,-1.4093875 -3.802517,-1.8703335 -0.998112,-0.326173 -2.040308,-0.5476981 -3.095578,-0.508063 -0.08975,2.213e-4 -0.179506,4.419e-4 -0.269261,6.641e-4 z"
         style="opacity:1;vector-effect:none;fill:#440055;fill-opacity:1;stroke:none;stroke-width:0.66499996;stroke-linecap:round;stroke-linejoin:round;stroke-miterlimit:4;stroke-dasharray:none;stroke-dashoffset:0;stroke-opacity:1" />
      <path
         inkscape:connector-curvature="0"
         id="path76"
         d="m 136.21661,266.78453 c -0.22121,0.10816 -0.0434,0.43236 -0.0286,0.61368 0.61363,2.18066 0.73636,4.46018 0.89291,6.70753 0.15806,3.12869 0.22435,6.27105 0.0374,9.39839 -0.0606,0.88369 -0.18632,1.76374 -0.5314,2.58096 -0.20275,0.68477 0.25552,1.32265 0.73823,1.7593 1.21271,1.21261 2.83243,1.87753 4.37488,2.56061 0.7382,0.27151 1.47702,0.65894 2.28215,0.64823 0.11829,-0.22726 0.0216,-0.57254 0.0418,-0.84985 -0.18293,-2.93854 -1.00113,-5.80035 -1.22978,-8.72818 -0.002,-0.40476 -0.0496,-0.95424 0.35399,-1.18419 0.73965,-0.0617 1.41511,0.3601 2.04694,0.68871 0.92068,0.56393 1.87053,1.18097 2.47031,2.09949 0.52282,0.96967 1.55681,1.49921 2.46056,2.055 2.34361,1.25079 4.58163,2.83718 6.11854,5.03803 0.84498,1.1497 1.15744,2.61144 2.01477,3.75857 0.17175,0.21418 0.36722,0.42743 0.67125,0.37015 1.88492,0.16957 3.7845,0.23003 5.65047,0.55507 0.54345,0.24151 1.13374,-0.008 1.68901,-0.0721 0.79777,-0.19299 1.66429,-0.31231 2.34617,-0.80171 0.7159,-0.64665 0.89548,-1.65688 1.18306,-2.5344 0.49949,-1.86899 0.92304,-3.78938 0.90932,-5.73328 0.0175,-0.50869 -0.1794,-1.04338 -0.64201,-1.30312 -0.85474,-0.44469 -1.79131,-0.71586 -2.70048,-1.02865 -0.43586,-0.11393 -1.06189,-0.33023 -1.38383,0.12155 -0.42206,0.60724 -0.60401,1.40081 -1.25376,1.83168 -0.92073,0.70734 -2.16469,0.58833 -3.24652,0.45281 -2.24125,-0.36803 -4.38932,-1.19655 -6.42024,-2.203 -1.88516,-0.94168 -3.49314,-2.33362 -4.95831,-3.83111 -0.7989,-0.75944 -1.70559,-1.59375 -2.87384,-1.62666 -1.92114,-0.27707 -3.58753,-1.40433 -5.07798,-2.58466 -1.50566,-1.33689 -2.99742,-2.76929 -3.94945,-4.57047 -0.6645,-1.20904 -0.85598,-2.63451 -1.56739,-3.82407 -0.11213,-0.13058 -0.23035,-0.34521 -0.41824,-0.36431 z"
         style="opacity:1;vector-effect:none;fill:#ff80e5;fill-opacity:1;stroke:none;stroke-width:0.66499996;stroke-linecap:round;stroke-linejoin:round;stroke-miterlimit:4;stroke-dasharray:none;stroke-dashoffset:0;stroke-opacity:1" />
      <path
         inkscape:connector-curvature="0"
         id="path78"
         d="m 145.56787,261.73117 c -0.51439,0.1763 -0.86611,0.6484 -1.27259,0.98969 -1.18392,1.2081 -2.54217,2.34864 -4.20379,2.81198 -0.55813,0.20257 -1.17553,0.10554 -1.72623,0.32112 -0.39647,0.23842 -0.14018,0.7638 -0.0728,1.10922 0.22016,0.74361 0.37889,1.51468 0.67668,2.23051 0.31131,0.53028 0.99853,0.39548 1.51157,0.40685 1.6143,-0.0777 3.21726,-0.36628 4.78136,-0.76583 0.98231,-0.30184 1.74657,-1.07723 2.34347,-1.88458 0.19842,-0.31564 0.4733,-0.73406 0.2886,-1.10921 -0.22065,-0.13973 -0.50805,-0.2019 -0.63184,-0.46765 -0.67618,-1.09696 -0.78949,-2.46037 -1.5045,-3.53957 -0.0479,-0.0545 -0.11196,-0.11051 -0.18993,-0.10253 z"
         style="opacity:1;vector-effect:none;fill:#ff80e5;fill-opacity:1;stroke:none;stroke-width:0.66499996;stroke-linecap:round;stroke-linejoin:round;stroke-miterlimit:4;stroke-dasharray:none;stroke-dashoffset:0;stroke-opacity:1" />
      <path
         inkscape:connector-curvature="0"
         id="path80"
         d="m 145.15522,284.14067 c -0.21919,-8e-5 -0.53522,0.0368 -0.58307,0.30168 -0.0572,0.42598 0.10109,0.8455 0.19892,1.25452 0.29584,1.01875 0.58417,2.04065 0.91201,3.04943 0.0123,0.0985 0.12846,0.13758 0.1747,0.0372 0.59165,-0.72805 1.23179,-1.4342 1.66251,-2.27478 0.18121,-0.31535 0.0508,-0.69395 -0.15812,-0.95932 -0.43564,-0.57481 -1.0179,-1.05619 -1.68952,-1.32731 -0.16513,-0.0625 -0.34144,-0.0854 -0.51743,-0.0814 z"
         style="opacity:1;vector-effect:none;fill:#ff80e5;fill-opacity:1;stroke:none;stroke-width:0.66499996;stroke-linecap:round;stroke-linejoin:round;stroke-miterlimit:4;stroke-dasharray:none;stroke-dashoffset:0;stroke-opacity:1" />
      <path
         inkscape:connector-curvature="0"
         id="path82"
         d="m 26.718649,265.88302 c -0.275137,0.0668 -0.140584,0.45484 -0.179914,0.6551 0.05833,1.8297 0.500673,3.61916 0.767061,5.42441 0.4025,2.25801 0.688364,4.53779 1.130618,6.78863 0.250256,1.21994 0.918929,2.30867 1.773396,3.20013 1.883812,2.08537 4.025677,4.03633 6.61313,5.20113 0.868606,0.38844 1.81777,0.64955 2.776041,0.53284 0.807373,-0.003 1.612116,-0.55118 1.825484,-1.34376 0.481949,-1.73307 0.5422,-3.55111 0.587304,-5.33932 -0.02487,-1.4333 0.04207,-2.90137 -0.343787,-4.29609 -0.236672,-0.78248 -0.648721,-1.52741 -1.30965,-2.02875 -0.854398,-0.70567 -2.003023,-0.93017 -3.08691,-0.86693 -1.275511,-0.0338 -2.550398,0.22619 -3.702764,0.77663 -0.8314,0.31827 -1.490512,0.92649 -2.246712,1.36972 -0.314235,0.15269 -0.816517,0.4182 -1.103159,0.0872 -0.143489,-0.32329 0.201583,-0.61693 0.230291,-0.93752 0.133191,-0.88072 -0.307433,-1.71691 -0.586886,-2.52643 -0.824383,-2.00334 -1.662062,-4.00262 -2.542892,-5.9817 -0.15367,-0.2427 -0.26617,-0.68241 -0.600651,-0.71527 z"
         style="opacity:1;vector-effect:none;fill:#ff80e5;fill-opacity:1;stroke:none;stroke-width:0.66499996;stroke-linecap:round;stroke-linejoin:round;stroke-miterlimit:4;stroke-dasharray:none;stroke-dashoffset:0;stroke-opacity:1" />
      <path
         inkscape:connector-curvature="0"
         id="path84"
         d="m 24.392488,251.88278 c -0.233629,0.12832 -0.204117,0.48315 -0.284003,0.70944 -0.341305,2.02758 -0.515949,4.08121 -0.958502,6.09066 -0.494917,2.56108 -1.355933,5.07861 -1.421893,7.70755 -0.02808,0.88863 0.03611,1.86958 0.681155,2.55157 0.284748,0.27664 0.509732,0.67116 0.889261,0.8228 0.464656,0.0273 0.965291,-0.12758 1.321873,-0.42762 0.498015,-0.67863 0.573466,-1.57814 0.56282,-2.39483 -0.027,-0.60589 -0.175685,-1.27674 -0.710714,-1.6383 -0.195915,-0.17983 -0.425838,-0.50543 -0.150398,-0.73028 0.298118,-0.30387 0.795838,-0.13489 1.150929,-0.34491 0.371389,-0.13395 0.502022,-0.54865 0.442432,-0.91125 -0.08344,-1.07377 -0.834306,-1.94694 -1.040373,-2.99284 -0.340708,-1.36066 -0.186961,-2.7836 -0.23429,-4.17348 -0.02934,-1.34812 0.04691,-2.70434 -0.08851,-4.04729 -0.01956,-0.0836 -0.05091,-0.22073 -0.159785,-0.22122 z"
         style="opacity:1;vector-effect:none;fill:#ff80e5;fill-opacity:1;stroke:none;stroke-width:0.66499996;stroke-linecap:round;stroke-linejoin:round;stroke-miterlimit:4;stroke-dasharray:none;stroke-dashoffset:0;stroke-opacity:1" />
      <path
         inkscape:connector-curvature="0"
         id="path86"
         d="m 30.707422,246.27686 c -0.771117,0.0804 -1.418923,0.58029 -2.050425,0.98984 -0.208518,0.19544 -0.578578,0.34609 -0.612929,0.65995 0.205515,0.46949 0.702347,0.73291 1.069576,1.06562 1.525899,1.12927 3.017176,2.31124 4.360455,3.65515 0.910778,0.84344 1.733944,1.79263 2.728997,2.54046 0.538136,0.33974 1.181499,-0.12274 1.437124,-0.60847 0.344466,-0.65703 0.09036,-1.42329 -0.275453,-2.01129 -1.019884,-1.73363 -2.303573,-3.31157 -3.743362,-4.71343 -0.734057,-0.6645 -1.565873,-1.29932 -2.539552,-1.54977 -0.123241,-0.0232 -0.249079,-0.0335 -0.374431,-0.0281 z"
         style="opacity:1;vector-effect:none;fill:#ff80e5;fill-opacity:1;stroke:none;stroke-width:0.66499996;stroke-linecap:round;stroke-linejoin:round;stroke-miterlimit:4;stroke-dasharray:none;stroke-dashoffset:0;stroke-opacity:1" />
      <path
         inkscape:connector-curvature="0"
         id="path155"
         d="m 23.156026,171.26317 c -0.02643,0.004 -0.04587,0.0295 -0.04482,0.0559 -0.0094,0.29589 -0.01481,0.5919 -0.01892,0.8879 -0.0012,0.0198 -1.3e-5,0.0419 0.01515,0.0566 0.02017,0.0212 0.05751,0.0207 0.07669,-0.002 0.0181,-0.0191 0.01379,-0.047 0.01642,-0.071 0.01043,-0.17772 0.02049,-0.3555 0.03029,-0.53319 -0.0052,-0.11539 -0.0094,-0.23037 -0.01346,-0.34553 -0.0014,-0.0287 -0.02889,-0.0529 -0.05764,-0.0493 -0.0012,5e-5 -0.0025,1.1e-4 -0.0037,1.6e-4 z"
         style="opacity:1;vector-effect:none;fill:#53536c;fill-opacity:1;stroke:none;stroke-width:0.66499996;stroke-linecap:round;stroke-linejoin:round;stroke-miterlimit:4;stroke-dasharray:none;stroke-dashoffset:0;stroke-opacity:1" />
      <path
         inkscape:connector-curvature="0"
         id="path21"
         d="m 160.81084,296.24691 c -3.16022,-0.20086 -4.60405,-1.18529 -5.02434,-3.42566 -0.40301,-2.14819 -0.94388,-2.7358 -4.02735,-4.37527 l -2.36218,-1.25598 -1.91509,2.01316 c -1.05328,1.10722 -1.91507,2.22772 -1.91507,2.48998 0,1.02779 -2.9039,0.34927 -6.22239,-1.45391 -3.97326,-2.15897 -4.89437,-3.61478 -3.70034,-5.84844 1.04824,-1.96098 0.85912,-11.84815 -0.29983,-15.67591 -0.85254,-2.81578 -0.85187,-2.9625 0.0189,-3.92413 1.01412,-1.12058 1.02264,-1.09383 -1.98203,-6.22176 -0.96252,-1.64269 -2.01046,-3.49076 -2.32871,-4.10678 -0.31828,-0.61602 -0.76158,-1.12002 -0.9851,-1.12002 -0.6798,0 -1.85516,2.12788 -3.69327,6.68633 -0.963,2.38822 -2.33597,5.22626 -3.05102,6.3068 -1.81885,2.74845 -5.52951,5.33709 -8.44222,5.88948 -3.58385,0.67965 -13.1697,0.16839 -18.843835,-1.0049 -5.432618,-1.12342 -9.124697,-1.02513 -14.279635,0.38011 -3.393215,0.92499 -7.628496,0.3761 -11.993823,-1.55447 -2.61028,-1.15439 -13.579595,-10.07715 -14.120106,-11.48571 -0.135652,-0.35331 -1.630777,-1.61046 -3.322701,-2.79366 -1.691904,-1.18322 -4.031619,-3.02833 -5.19934,-4.10025 -2.113416,-1.94003 -2.128242,-1.94464 -3.235645,-1.00749 -3.073413,2.60093 -5.813963,5.62698 -6.723892,7.42439 -0.878943,1.73617 -0.94865,2.36181 -0.523713,4.69977 0.529921,2.9156 1.95519,6.0355 4.437441,9.71348 1.467,2.1737 1.587258,2.68493 1.797507,7.64163 0.194822,4.59272 0.09463,5.54803 -0.739471,7.05436 -0.789069,1.42488 -1.295038,1.77044 -2.77769,1.89687 -3.382041,0.28841 -10.045144,-4.44303 -12.135103,-8.61708 -0.54834,-1.09513 -1.150081,-3.45438 -1.337204,-5.24275 -0.187125,-1.78835 -0.495628,-3.4684 -0.685568,-3.73342 -0.189941,-0.26504 -1.067309,-0.50541 -1.949706,-0.53418 -0.882412,-0.0289 -1.94643,-0.33621 -2.364518,-0.68322 -1.082908,-0.89873 -0.962159,-5.05029 0.260331,-8.95067 0.554191,-1.7682 1.147347,-4.55157 1.318105,-6.18529 0.170832,-1.6337 0.666464,-3.96543 1.101578,-5.18162 0.68073,-1.90266 1.109649,-2.33632 3.074022,-3.10795 1.255601,-0.49319 3.109691,-1.45779 4.120202,-2.14352 l 1.837281,-1.24683 -4.866908,-2.33108 c -4.521058,-2.16541 -5.456745,-2.48896 -7.691006,-2.65938 -0.458125,-0.0349 -1.522162,-0.64345 -2.364531,-1.35225 -1.783547,-1.50077 -2.091216,-4.05514 -0.660414,-5.48301 0.479121,-0.47814 1.812427,-2.3422 2.962915,-4.14235 1.150468,-1.80013 2.434576,-3.7057 2.853549,-4.23459 0.418976,-0.52886 1.018042,-1.7609 1.331253,-2.73787 0.31321,-0.97692 0.848111,-2.11224 1.188669,-2.52294 0.340556,-0.41067 1.253492,-2.65072 2.028746,-4.97792 1.220755,-3.66448 1.405971,-4.97318 1.382812,-9.77071 -0.0213,-4.41514 -0.226744,-5.98121 -1.012201,-7.71578 -0.542013,-1.19695 -1.385681,-3.52034 -1.874825,-5.16304 -0.489141,-1.64273 -1.08365,-3.54677 -1.321131,-4.23123 -0.99764,-2.87538 -2.018179,-8.41968 -2.445883,-13.28782 -0.363415,-4.13624 -0.302908,-5.88914 0.294349,-8.52851 1.230456,-5.43762 2.46498,-9.17025 4.760194,-14.39263 0.510081,-1.16061 0.927421,-2.41738 0.927421,-2.79284 0,-0.37547 0.560015,-1.50788 1.244478,-2.51649 0.68446,-1.00862 1.244483,-1.95338 1.244483,-2.09947 0,-0.14619 -1.999457,-2.24236 -4.443237,-4.65838 -2.44378,-2.416 -5.000079,-5.27484 -5.680665,-6.35297 -0.680603,-1.0781 -1.568333,-2.29112 -1.972781,-2.69555 -0.40443,-0.40442 -1.802344,-2.92871 -3.106468,-5.6095 -2.284062,-4.69517 -2.390231,-5.11069 -2.890537,-11.31412 -0.391166,-4.85 -0.369079,-7.31658 0.08956,-9.99068 0.634659,-3.70112 3.800374,-11.377379 5.786267,-14.03065 0.633023,-0.845753 1.292874,-2.006551 1.466341,-2.579536 0.173466,-0.573007 1.151506,-2.174925 2.173397,-3.559819 1.021905,-1.384894 2.194015,-3.03898 2.604694,-3.675729 0.410678,-0.636765 1.48871,-1.863657 2.395627,-2.726439 L 28.64838,73.760409 27.4407,72.810461 c -1.763215,-1.386944 -4.742009,-2.548307 -7.450782,-2.904893 -2.719761,-0.358034 -4.306814,-1.580467 -5.806587,-4.472566 -1.093707,-2.109071 -1.40367,-6.536558 -0.567286,-8.103234 0.253804,-0.475416 0.576222,-1.239291 0.716483,-1.697513 0.554474,-1.811373 5.687192,-4.974772 13.920419,-8.579384 3.348191,-1.465889 5.421102,-3.403242 7.771729,-7.263538 3.288853,-5.401047 6.499664,-11.53686 6.499664,-12.420749 0,-0.287012 0.205451,-0.52184 0.456545,-0.52184 0.251095,0 0.708279,-1.173795 1.015947,-2.608428 0.307669,-1.434634 1.110262,-3.772832 1.783529,-5.195991 0.673248,-1.423162 1.224109,-2.973768 1.224109,-3.445793 0,-1.382105 2.302669,-4.917249 4.082114,-6.2670212 C 53.537491,7.4704237 57.655221,6.289977 61.664846,6.2970079 64.742565,6.302425 65.785737,6.0319353 70.151797,4.0965456 76.71795,1.185906 80.356841,0.80852122 84.39179,2.6197411 c 3.526833,1.5831421 4.925009,3.7126561 4.925009,7.5011229 0,1.876519 0.35333,3.260315 1.231954,4.82502 4.776791,8.506762 5.599084,13.03673 4.275356,23.552512 -0.562358,4.467374 -0.571426,6.119015 -0.05119,9.322639 0.347743,2.141357 0.477711,4.717247 0.288815,5.724163 -0.483374,2.576585 -3.027146,4.878351 -6.510273,5.890932 l -2.834453,0.824004 0.208292,2.879701 c 0.178548,2.469493 0.544408,3.350732 2.567968,6.186482 2.889295,4.048984 7.684825,9.290806 8.499763,9.290806 0.329964,0 1.243768,0.672023 2.030692,1.493376 0.786897,0.821371 1.668837,1.500827 1.959857,1.509953 1.44047,0.04516 4.91543,4.383598 6.06071,7.566827 1.07294,2.9821 1.04192,7.730546 -0.0557,8.533163 -0.72282,0.52854 -0.76674,0.904384 -0.30147,2.580238 1.20811,4.35131 0.0573,10.95145 -2.47946,14.22234 -0.77089,0.99389 -1.5555,2.44995 -1.74359,3.23564 -0.18813,0.7857 -0.54833,1.69144 -0.80054,2.01278 -0.25222,0.32133 -1.31509,4.01744 -2.36197,8.21357 -1.636328,6.55879 -1.806822,7.7396 -1.215078,8.41521 0.378598,0.43222 0.688355,1.04826 0.688355,1.36894 0,0.32066 0.196814,0.58304 0.437393,0.58304 0.240557,0 0.730849,0.72802 1.08949,1.61782 0.35868,0.8898 1.16379,2.30304 1.78919,3.1405 1.70177,2.2789 3.457,11.68574 2.71288,14.53928 -0.39513,1.51535 -0.40397,2.79237 -0.0309,4.45737 0.5336,2.3811 0.6752,2.75208 3.3929,8.89011 0.85823,1.93833 1.5604,3.86819 1.5604,4.28857 0,0.42036 0.41001,1.29851 0.91113,1.95145 0.96132,1.25259 4.55303,8.18489 6.74352,13.01566 0.71534,1.57754 1.91035,3.81759 2.65554,4.97792 0.74521,1.16033 2.06647,3.45371 2.9361,5.09645 4.6146,8.71673 4.17133,8.07313 9.24387,13.42194 1.82883,1.92844 3.75036,4.51355 4.27006,5.74469 0.91798,2.1746 3.3535,9.89705 4.5523,14.43433 0.32551,1.23203 0.80483,3.02409 1.06514,3.98234 0.26034,0.95824 0.33914,2.89505 0.17519,4.30402 -0.16408,1.40895 -0.0548,3.31301 0.24273,4.23124 0.29748,0.91821 0.97282,3.46155 1.50076,5.65181 1.60977,6.67872 3.58493,12.3375 5.03803,14.43398 2.12347,3.06367 8.81996,10.06842 11.17306,11.68742 1.15813,0.7968 2.7561,1.60908 3.55105,1.80506 0.79494,0.19596 1.89335,0.64226 2.44095,0.9918 0.54756,0.34951 2.04582,0.8972 3.32943,1.21711 1.28361,0.31989 2.69615,0.98193 3.13896,1.47127 0.72665,0.8029 0.73441,1.17396 0.0798,3.80649 -0.39893,1.6043 -0.86382,3.72615 -1.03309,4.71525 -0.16933,0.9891 -0.7442,2.19332 -1.27755,2.67601 -1.06356,0.96251 -5.63839,1.59993 -9.65191,1.34482 z m 8.93043,-4.85844 c 0.42364,-1.45725 0.81386,-3.57316 0.86714,-4.702 0.0931,-1.97413 0.0209,-2.07935 -1.89428,-2.75711 -2.56855,-0.90899 -2.486,-0.92162 -3.12384,0.47827 -0.8295,1.82054 -3.01484,2.06351 -6.90783,0.76802 -3.7623,-1.25201 -6.18681,-2.74507 -8.48571,-5.22559 -0.87582,-0.94505 -2.05904,-1.71826 -2.62939,-1.71826 -3.25568,0 -8.99476,-4.94044 -10.04799,-8.64972 -0.32056,-1.12906 -0.80209,-2.27683 -1.07001,-2.55062 -0.31952,-0.3265 -0.37254,-0.17421 -0.1541,0.44239 1.07065,3.02253 1.42858,16.79131 0.47712,18.35373 -0.66087,1.0852 0.67139,2.52169 3.63922,3.92391 1.77529,0.83879 3.36295,1.38993 3.52809,1.22478 0.1652,-0.16519 -0.11381,-2.55782 -0.62015,-5.31704 -0.74088,-4.03782 -0.7956,-5.09393 -0.28047,-5.4123 0.76203,-0.47095 4.38394,1.75456 4.7558,2.92221 0.13792,0.433 1.31702,1.34728 2.62032,2.03173 3.45547,1.81475 5.92858,4.23888 6.8883,6.75186 0.46388,1.21463 1.09297,2.22794 1.39802,2.25179 0.30503,0.0239 1.76733,0.13528 3.24955,0.24749 1.48222,0.11213 2.78104,0.29014 2.88624,0.39537 0.10513,0.10523 1.07838,-0.0338 2.16253,-0.30902 1.83158,-0.46489 2.02576,-0.68802 2.74146,-3.14989 z m -22.18329,-5.21159 c 0,-0.6647 -1.50842,-1.97158 -2.27561,-1.97158 -0.86193,0 -0.86689,0.11138 -0.11667,2.61511 l 0.59443,1.98392 0.89895,-1.11018 c 0.49445,-0.61061 0.89899,-1.29338 0.89899,-1.51727 z m -106.490523,0.72168 c 0.871529,-1.05014 1.214738,-8.12451 0.499328,-10.29224 -0.735278,-2.22795 -2.640873,-3.1 -5.753925,-2.63317 -1.259611,0.18891 -2.884536,0.87511 -3.702992,1.56378 -1.381451,1.16242 -2.540329,0.9352 -1.750266,-0.34317 0.186638,-0.30199 -0.11533,-1.59003 -0.671082,-2.86231 -0.555735,-1.27228 -1.471939,-3.43326 -2.036003,-4.8022 -1.176703,-2.85573 -1.382826,-1.85323 -0.556769,2.70791 0.275702,1.5223 0.745579,4.40148 1.044172,6.3982 0.504124,3.37112 0.718819,3.81388 3.00621,6.1996 4.020782,4.19359 8.343908,5.96427 9.921327,4.0636 z m 122.452593,-2.71077 c 1.06074,-0.56769 1.33129,-2.79949 0.3406,-2.80976 -1.83561,-0.019 -8.55188,-5.94531 -12.71039,-11.21539 -1.69967,-2.15403 -3.09451,-3.0288 -3.09451,-1.94075 0,0.66389 -3.7721,2.04413 -5.61021,2.05284 -0.88427,0.003 -1.85956,0.17215 -2.16732,0.37335 -1.7821,1.16474 3.13242,5.67103 7.39586,6.78152 2.0678,0.5386 3.33681,1.26836 4.86767,2.79919 3.48264,3.48268 8.49254,5.28934 10.9783,3.959 z M 36.425864,272.96869 c 1.437385,-0.18739 2.613422,-0.45275 2.613422,-0.5895 0,-0.13678 -0.676388,-1.4308 -1.503065,-2.87568 -2.637487,-4.60986 -3.55244,-8.87816 -2.430814,-11.33988 0.427102,-0.9374 0.371317,-1.53718 -0.255722,-2.74975 -0.945018,-1.82748 -7.110043,-6.65274 -8.228381,-6.44023 -0.608308,0.11551 -0.826677,1.10281 -1.022414,4.62228 -0.228149,4.10223 -0.117044,4.84873 1.332838,8.95541 3.331622,9.43658 4.363881,11.36568 5.885141,10.99849 0.547586,-0.13226 2.171627,-0.39367 3.608995,-0.58114 z m 80.268986,-3.17863 c 3.42758,-1.83694 6.28171,-5.31554 7.87982,-9.60383 2.47104,-6.63062 7.38467,-14.1068 9.54293,-14.51969 0.81753,-0.15635 4.28778,-1.56276 5.4757,-2.2191 1.93796,-1.07072 0.62755,-9.45033 -3.17881,-20.3274 -1.75416,-5.0127 -2.42608,-6.16637 -4.87807,-8.37545 -2.58889,-2.33238 -4.36451,-4.71046 -6.15413,-8.24213 -0.73634,-1.45308 -1.72818,-3.21291 -2.20408,-3.91076 -1.68699,-2.47366 -6.32814,-11.26087 -7.24315,-13.7136 -0.51069,-1.36892 -1.41059,-3.27299 -1.99976,-4.23124 -3.2263,-5.24728 -5.2054,-8.85306 -5.20766,-9.48797 -10e-4,-0.39422 -0.55443,-1.61279 -1.22894,-2.70794 -0.67453,-1.09513 -1.23423,-2.43918 -1.2438,-2.98674 -0.009,-0.54758 -0.46456,-1.72903 -1.01112,-2.62545 -0.54656,-0.89642 -0.99373,-1.84006 -0.99373,-2.09694 0,-0.2569 -0.46444,-1.70844 -1.0321,-3.22566 -1.21311,-3.24232 -2.4705,-4.1789 -4.140899,-3.08442 -1.360472,0.89143 -3.812395,1.12241 -6.618457,0.62353 -1.775401,-0.31564 -2.131911,-0.58636 -2.404078,-1.82547 -0.175724,-0.80018 -0.51786,-1.45488 -0.760261,-1.45488 -0.242403,0 -0.682768,-0.45225 -0.978602,-1.00502 -0.405653,-0.75799 -0.358373,-1.33923 0.192336,-2.36452 0.401609,-0.74772 0.852755,-1.75149 1.002533,-2.23061 0.149762,-0.47914 0.742673,-0.87115 1.317578,-0.87115 0.594981,0 2.006967,-1.00369 3.27764,-2.3299 l 2.232379,-2.32992 -0.335326,-3.84418 c -0.280576,-3.21651 -0.113825,-4.80714 1.021141,-9.74156 0.746058,-3.24355 2.005122,-7.54897 2.797917,-9.5676 0.792789,-2.01863 1.441439,-3.78269 1.441439,-3.92011 0,-0.13734 -0.67201,-0.11552 -1.493369,0.0486 -2.305208,0.46104 -1.821872,-0.67469 1.138049,-2.6741 2.21342,-1.49518 2.75589,-2.19116 3.68583,-4.72903 1.19586,-3.26352 1.46053,-7.80992 0.62896,-10.804138 -0.33322,-1.199786 -1.89351,-3.342608 -4.41846,-6.068017 -2.146824,-2.317279 -4.39988,-5.290737 -5.006789,-6.607692 -0.606889,-1.316934 -1.748328,-3.755595 -2.53651,-5.419241 l -1.433059,-3.024795 -2.705387,0.09482 c -2.757237,0.0967 -4.88232,1.056963 -8.004027,3.617085 -2.180264,1.788041 -5.645086,1.335337 -11.713924,-1.530534 -6.710082,-3.168668 -8.174579,-3.299333 -12.681688,-1.131504 -3.292334,1.583552 -3.662164,1.910694 -3.961066,3.504011 -0.335588,1.788755 -2.943367,7.073687 -7.247263,14.687202 -1.832334,3.241403 -2.471866,4.946073 -2.733741,7.286843 -0.225187,2.01263 -0.157474,3.16958 0.19834,3.38947 0.297131,0.18363 0.54023,0.86057 0.54023,1.50431 0,1.51944 3.003799,5.29148 6.905298,8.67142 2.86685,2.48359 3.288684,2.68511 5.686948,2.71661 1.424723,0.0188 3.666697,-0.26896 4.982168,-0.63929 1.708329,-0.48093 2.54492,-0.52016 2.927808,-0.13735 0.68,0.68002 -1.8703,1.80317 -5.242689,2.3089 -1.849585,0.27735 -2.329855,0.53039 -2.107339,1.11025 0.158602,0.41304 0.288194,0.95667 0.288194,1.20806 0,0.25141 0.351996,0.4571 0.782239,0.4571 1.15235,0 1.941286,1.04664 2.06371,2.73784 0.09897,1.36687 1.069173,4.18463 2.183067,6.34011 0.245677,0.47541 0.446687,1.10179 0.446687,1.39194 0,0.56293 3.175404,7.69327 3.983097,8.944 0.265204,0.41068 0.786828,1.41871 1.159198,2.24005 0.372352,0.82136 1.047706,1.80083 1.50079,2.17658 0.453084,0.37576 0.823798,0.99622 0.823798,1.37883 0,0.88423 2.243292,4.46195 3.134256,4.99867 0.370848,0.22341 0.822463,0.80891 1.003568,1.30111 0.269513,0.73241 0.669447,0.83525 2.202521,0.56636 1.030284,-0.18061 2.348746,-0.62589 2.929916,-0.98932 1.647973,-1.03055 3.085735,-0.36594 3.676839,1.69964 0.729219,2.54822 2.130349,11.39744 2.160735,13.64672 0.03594,2.66843 -1.560826,4.03187 -6.901555,5.8926 -2.460068,0.85709 -4.91468,1.86693 -5.454742,2.24408 -0.540024,0.37714 -1.326363,0.68571 -1.747368,0.68571 -0.421024,0 -2.55525,0.78129 -4.742718,1.73621 -2.187471,0.9549 -4.537251,1.74423 -5.221711,1.75408 -0.684461,0.0102 -2.588513,0.57156 -4.231237,1.24825 -1.642706,0.67669 -3.546758,1.2347 -4.231217,1.24003 -0.68448,0.005 -2.669039,0.34548 -4.410161,0.75591 -3.031494,0.71463 -3.236813,0.70232 -4.843583,-0.29072 -1.21485,-0.75084 -1.831373,-1.61131 -2.234072,-3.11813 -0.305899,-1.14464 -1.330051,-4.4 -2.275877,-7.23414 -1.637361,-4.90634 -1.676741,-5.1857 -0.822633,-5.83577 0.493365,-0.37551 1.312535,-0.8233 1.820368,-0.99507 0.742558,-0.25115 0.858585,-0.61926 0.592629,-1.88002 -0.181934,-0.86222 -0.529695,-3.24777 -0.772888,-5.30114 -0.614811,-5.19119 -1.41447,-10.21611 -2.134019,-13.40987 -0.534831,-2.37387 -0.901162,-2.91652 -2.973978,-4.40542 l -2.364041,-1.6981 -0.984169,1.16979 c -0.541304,0.64336 -1.250582,2.06579 -1.576159,3.16093 -0.325581,1.09514 -0.759964,2.21789 -0.965292,2.49501 -1.017804,1.37364 -3.278315,8.52444 -4.718932,14.92773 -0.78634,3.49513 -0.914747,10.71304 -0.229605,12.90724 0.262535,0.8408 0.938437,3.60233 1.502007,6.13678 0.563569,2.53442 1.491965,5.78251 2.063101,7.21796 1.671897,4.20208 2.401719,7.3135 2.751493,11.73034 0.278113,3.51168 0.153525,4.72443 -0.818209,7.96467 -1.194702,3.9837 -4.988593,12.27502 -6.490261,14.18409 -0.477674,0.60723 -1.221248,1.88432 -1.652413,2.83797 -0.431165,0.95367 -1.360456,2.70696 -2.065084,3.89624 -1.387867,2.34247 -1.302112,3.72739 0.283398,4.57593 0.804193,0.43036 0.961876,0.34867 0.961876,-0.49834 0,-1.16685 1.248509,-1.37361 1.669533,-0.27648 0.247783,0.64571 9.194163,5.22644 17.24658,8.8306 3.195986,1.43049 7.959006,4.40903 8.939226,5.59011 0.375381,0.45231 2.549737,2.17036 4.831897,3.81788 2.282163,1.6475 4.149395,3.18749 4.149395,3.42218 0,0.88101 10.628572,9.5988 13.346658,10.9472 4.076058,2.02208 7.818746,2.62096 10.790429,1.72662 4.068945,-1.22458 10.968223,-1.44499 14.939599,-0.47733 6.70959,1.63491 17.8421,1.78165 20.65836,0.27232 z m -92.381153,-0.32289 c 0.884485,-0.33941 1.111628,-3.42103 0.28961,-3.92907 -0.74065,-0.45776 -0.601877,-1.24449 0.219518,-1.24449 1.200893,0 1.357586,-0.88406 0.460613,-2.59878 -0.648917,-1.24052 -0.824006,-2.64741 -0.729285,-5.85995 0.137983,-4.67955 -0.233331,-5.2081 -0.691305,-0.9841 -0.162367,1.49746 -0.62494,4.0395 -1.027967,5.64902 -1.261792,5.03908 -1.374507,7.27629 -0.419782,8.33124 0.96882,1.07054 0.860836,1.03435 1.898598,0.63613 z m 121.055323,-0.7441 c 1.42138,-0.438 3.29171,-2.93609 2.19828,-2.93609 -0.25694,0 -0.73561,-0.89603 -1.06373,-1.99116 -0.32809,-1.09513 -0.74606,-1.99116 -0.92878,-1.99116 -0.18269,0 -0.8753,0.5813 -1.53903,1.29176 -1.46639,1.56964 -3.52824,2.69056 -4.94908,2.69056 -0.8564,0 -0.99352,0.20986 -0.73191,1.12005 0.17704,0.61601 0.42707,1.49876 0.55553,1.96165 0.19073,0.68727 0.66277,0.79474 2.57391,0.58596 1.28718,-0.14054 3.03535,-0.46982 3.88481,-0.73157 z m -4.02182,-5.15189 c 0.98895,-0.67114 2.2553,-1.80143 2.81407,-2.51183 l 1.01594,-1.29158 -1.33929,-5.07951 c -1.27806,-4.8473 -2.57712,-8.62734 -3.24317,-9.43731 -0.16989,-0.2065 -1.50568,-0.02 -2.9686,0.41444 -1.93057,0.57334 -3.25388,1.40988 -4.82648,3.05117 -1.19163,1.24373 -2.16662,2.57407 -2.16662,2.95636 0,0.38226 0.52166,1.53024 1.15925,2.55107 1.67733,2.68555 3.9214,6.54894 5.05382,8.70069 1.15372,2.19222 2.03647,2.31902 4.50108,0.6465 z M 37.407437,254.7749 c 0.307161,-0.30714 0.428512,-0.92318 0.269683,-1.36893 -0.612307,-1.7185 -3.711682,-5.49739 -5.244701,-6.3946 -1.479811,-0.86605 -1.714763,-0.87923 -2.97475,-0.16707 -0.752421,0.42528 -1.368438,0.9108 -1.368927,1.07891 -4.89e-4,0.16801 0.842808,0.89031 1.873975,1.60493 1.031189,0.71459 2.869861,2.3131 4.085991,3.55223 2.408745,2.45434 2.535138,2.5181 3.358729,1.69452 z m 3.080823,-2.84237 c 0.708883,-0.77532 1.699507,-1.55946 2.201412,-1.74253 1.594748,-0.58176 0.643595,-1.51759 -3.821557,-3.76 -3.261722,-1.63804 -4.586881,-2.07308 -5.307239,-1.74226 -1.056943,0.48536 -1.24044,0.16988 3.362791,5.78101 0.8898,1.08463 1.617816,2.17486 1.617816,2.42275 0,0.79461 0.624856,0.48682 1.946777,-0.95897 z m 9.832354,-66.33286 c 2.137558,-0.2973 4.785842,-0.87091 5.885081,-1.2747 1.09922,-0.40377 3.322303,-1.06227 4.940193,-1.46332 1.617889,-0.40105 3.745962,-1.1676 4.729023,-1.70344 1.677021,-0.91407 4.415615,-2.10084 5.063482,-2.19425 0.537954,-0.0775 5.668717,-2.34941 8.048975,-3.56403 1.300625,-0.66369 2.67348,-1.2067 3.050797,-1.2067 0.377319,0 0.964434,-0.67212 1.304707,-1.49357 1.153368,-2.78452 -1.27577,-13.99038 -3.108856,-14.34146 -0.477787,-0.0914 -2.101828,0.19209 -3.608995,0.63023 -2.585165,0.75154 -2.740984,0.88742 -2.75246,2.40056 -0.02709,3.57743 -2.614514,10.5308 -4.90343,13.17759 -1.134515,1.3119 -3.605834,1.50189 -4.561256,0.3507 -0.351168,-0.42316 -0.970173,-0.64209 -1.375564,-0.48653 -1.007178,0.3865 -2.587967,-0.16952 -2.587967,-0.91043 0,-0.3332 -0.672023,-1.00278 -1.493376,-1.48799 -1.12127,-0.66235 -1.493376,-1.24724 -1.493376,-2.34739 0,-0.80586 -0.224003,-1.46522 -0.497788,-1.46522 -0.273782,0 -0.497803,-0.57511 -0.497803,-1.27804 0,-1.09653 -0.158981,-1.22863 -1.120028,-0.93026 -0.616014,0.19126 -1.714631,0.76638 -2.441349,1.27803 -0.726736,0.51165 -1.510761,0.93104 -1.742287,0.93199 -0.23151,0.001 -2.068207,0.67293 -4.081514,1.49336 -2.013307,0.82042 -4.309373,1.49167 -5.102373,1.49167 -0.792979,0 -1.441787,0.10371 -1.441787,0.23022 0,0.45668 2.132326,6.00392 2.494705,6.48999 0.204115,0.27378 0.775296,2.23383 1.269281,4.35567 0.527286,2.26483 1.154045,3.8579 1.517817,3.8579 0.340819,0 2.368574,-0.24326 4.506148,-0.54058 z m -7.302276,-3.95171 c -0.311564,-1.15712 -1.080254,-3.25178 -1.708179,-4.65485 -0.627941,-1.40305 -1.380605,-3.111 -1.6726,-3.79547 -0.401852,-0.94197 -0.539083,-1.02491 -0.564595,-0.34118 -0.01882,0.49682 0.395079,1.95288 0.91913,3.23566 0.524051,1.28279 1.087329,3.10467 1.251727,4.04859 0.309061,1.77464 1.673371,4.27872 2.099193,3.8529 0.133017,-0.13301 -0.01317,-1.18855 -0.324676,-2.34565 z m 24.681474,-7.8357 c 0.731684,-0.4999 1.939763,-2.77406 3.367571,-6.33922 1.629648,-4.06921 1.827499,-9.85207 0.389586,-11.38721 -0.918057,-0.98013 -3.306576,-5.32465 -7.286493,-13.25351 -0.893279,-1.77959 -2.452862,-5.47571 -3.465744,-8.21357 -1.012862,-2.73785 -2.010446,-5.15534 -2.216838,-5.3722 -0.429829,-0.4516 -3.519269,7.05439 -3.519269,8.55026 0,0.5436 -0.216741,1.55842 -0.481643,2.25518 -0.415137,1.09193 -0.243663,1.5259 1.242111,3.1436 0.948048,1.03224 1.726974,2.10081 1.730945,2.37459 0.0037,0.27378 0.789066,1.48136 1.744658,2.68346 0.955592,1.20213 1.737435,2.39223 1.737435,2.6447 0,0.25247 0.504013,0.38895 1.120027,0.30329 1.405552,-0.19543 1.373418,0.41583 -0.319107,6.06668 -0.697029,2.32717 -1.164731,4.5683 -1.039315,4.98027 0.125302,0.41198 -0.441156,1.53201 -1.259008,2.48897 -1.594974,1.86622 -1.747595,2.26822 -1.029626,2.71196 0.422981,0.26143 1.483518,-1.03374 2.811499,-3.43352 0.293333,-0.53011 0.797364,-1.05182 1.120028,-1.15939 1.122907,-0.37431 0.574021,1.28629 -1.404498,4.24914 -1.095137,1.63999 -1.991163,3.12155 -1.991163,3.29236 0,0.17083 0.762615,0.31058 1.694708,0.31058 1.587145,0 1.797865,-0.20531 3.32061,-3.23564 1.393078,-2.77233 2.451565,-4.0354 2.451565,-2.92548 0,0.54433 -3.208291,6.36157 -3.935422,7.13569 -0.607791,0.64705 -0.542356,0.78903 0.497805,1.08006 0.658648,0.18437 1.456444,0.35744 1.772862,0.3847 0.799999,0.069 3.519157,-5.91643 3.92878,-8.64806 0.185884,-1.23956 0.565404,-2.25374 0.843383,-2.25374 1.094837,0 -0.751853,7.81396 -2.617581,11.07588 -0.514888,0.90019 -0.143928,1.12972 0.792134,0.49017 z m -23.931504,-4.59695 c 0.169141,-0.27378 0.83475,-0.4978 1.479005,-0.4978 0.978638,0 1.226684,-0.32759 1.50775,-1.99115 0.184944,-1.09516 0.484709,-1.99203 0.665985,-1.99304 0.971188,-0.005 2.999395,-7.12126 3.36836,-11.81755 0.145435,-1.84977 0.674227,-4.98731 1.175305,-6.97224 0.501078,-1.98495 0.765926,-3.61243 0.588544,-3.61661 -0.177417,-0.003 -0.01694,-0.20169 0.358261,-0.43889 0.374402,-0.23719 0.775351,-1.4098 0.890984,-2.60578 0.249155,-2.57679 1.994003,-8.17152 3.053674,-9.79142 0.564257,-0.86256 0.608151,-1.28686 0.177606,-1.71739 -0.314498,-0.31447 -0.5718,-0.95587 -0.5718,-1.42532 0,-1.17885 -5.177045,-6.12835 -7.510908,-7.18078 -1.478778,-0.66683 -2.391058,-1.66982 -4.005861,-4.40413 -1.150055,-1.94739 -2.843654,-4.42836 -3.763536,-5.5133 -0.919882,-1.08494 -2.234976,-3.213 -2.922445,-4.72902 -0.687453,-1.51605 -1.426776,-3.09244 -1.642931,-3.5031 -1.142774,-2.171122 0.01506,-16.696941 1.446717,-18.136242 1.035703,-1.041873 1.050848,0.405672 0.04609,4.411454 -1.354622,5.401128 -1.364048,9.870043 -0.02916,13.832578 1.242489,3.68825 2.683486,5.786 3.146222,4.58012 0.166129,-0.43285 0.302005,-1.52575 0.302005,-2.42864 0,-1.67023 1.390594,-4.640744 5.718217,-12.215124 1.329636,-2.327183 2.914524,-5.239254 3.521978,-6.471308 l 1.104451,-2.240054 -1.715629,-0.299503 c -1.021141,-0.178359 -2.468479,-1.034668 -3.57547,-2.115618 -2.011914,-1.964579 -3.487981,-2.248937 -5.551333,-1.069437 -2.324776,1.328979 -5.03035,0.934782 -8.361459,-1.2182 -2.935542,-1.897355 -3.091362,-1.939329 -4.531194,-1.22106 -0.820109,0.409133 -1.644395,1.237335 -1.831748,1.840461 -0.187352,0.603127 -1.050032,1.7916 -1.917065,2.641061 -0.867034,0.849461 -2.40345,3.089514 -3.41426,4.977933 -1.010794,1.888397 -2.164273,3.993469 -2.563284,4.677921 -1.731959,2.971099 -3.811117,8.077397 -4.266382,10.477998 -1.180347,6.22394 -0.179298,15.52443 2.183951,20.28921 2.607854,5.25817 3.886713,7.4014 5.418357,9.08079 0.886298,0.9718 2.171478,2.5943 2.855942,3.60559 0.684463,1.0113 1.403828,1.84023 1.598587,1.84212 0.194761,0.002 1.20997,0.84342 2.256021,1.87011 3.272001,3.21147 6.073322,5.52421 7.077059,5.84279 1.316881,0.41798 2.779063,2.98008 3.412612,5.97978 0.289137,1.36891 0.757064,3.60899 1.039841,4.97793 0.282778,1.3689 0.634284,4.281 0.781128,6.47128 0.287575,4.28921 0.740696,7.73844 1.095382,8.33801 0.318843,0.539 1.543818,0.45895 1.904373,-0.12435 z m 7.060818,-2.49369 c 1.510366,-0.007 7.01538,-3.81263 7.849073,-5.4248 0.429133,-0.82986 0.979599,-2.9158 1.223281,-4.63541 0.363602,-2.56592 0.287989,-3.4836 -0.42172,-5.11772 -0.475642,-1.09513 -1.21837,-2.28297 -1.650513,-2.63962 -0.669748,-0.55275 -0.838737,-0.47927 -1.144938,0.49779 -0.197568,0.63044 -1.112427,2.75992 -2.033024,4.73221 -0.920597,1.9723 -1.673824,4.00531 -1.673824,4.5178 0,0.51252 -0.560023,1.45796 -1.244482,2.10096 -0.684462,0.64304 -1.244484,1.57811 -1.244484,2.07794 0,0.49986 -0.224003,0.90882 -0.497788,0.90882 -0.273783,0 -0.497785,0.42059 -0.497785,0.93463 0,0.51404 -0.336022,1.21349 -0.746698,1.55433 -1.077413,0.89417 -0.922064,1.62226 0.216175,1.0131 0.529563,-0.28342 1.369599,-0.51743 1.866727,-0.52003 z m 1.404555,-9.96837 c 0.178169,-1.05413 0.616032,-2.15913 0.973182,-2.45553 0.35715,-0.2964 1.150977,-2.09896 1.764075,-4.00568 1.048138,-3.25976 1.065805,-3.54142 0.295834,-4.71655 -0.450392,-0.68738 -1.00272,-1.24979 -1.2274,-1.24979 -0.224679,0 -0.758946,1.84806 -1.187251,4.10678 -1.541333,8.12857 -1.831355,9.60136 -2.132117,10.82698 -0.287257,1.17054 -0.260972,1.19001 0.442245,0.32745 0.411186,-0.5044 0.893336,-1.77953 1.071432,-2.83366 z m 46.108017,0.71874 c 0.720302,-0.36616 1.896342,-1.36298 2.613402,-2.21517 1.25357,-1.48979 1.64066,-3.49844 1.41961,-7.36661 -0.0783,-1.36903 -3.29937,-7.76318 -4.6307,-9.19219 -0.908124,-0.97477 -0.91849,-0.96241 -0.692494,0.82567 0.126242,0.99839 0.332182,2.62891 0.45773,3.62335 0.192092,1.52153 -0.06434,2.17245 -1.617833,4.10678 -2.261428,2.81583 -2.487631,2.99561 -4.250766,3.37803 -1.92663,0.41793 -0.718814,1.14308 1.920554,1.15311 2.156727,0.007 4.217559,-1.09644 4.217559,-2.26066 0,-0.39516 0.239089,-0.71848 0.531331,-0.71848 0.584632,0 0.166693,1.8374 -0.650257,2.85874 -0.706058,0.88273 -4.300304,1.75803 -5.902878,1.43751 -0.863929,-0.17272 -1.5774,-0.007 -1.960419,0.45392 -0.423828,0.51068 -0.436679,0.72556 -0.04347,0.72556 0.829368,0 1.153912,0.0914 2.873888,0.81014 1.333267,0.55706 1.659637,0.54547 2.176575,-0.0773 0.33446,-0.40301 0.83394,-0.73273 1.109943,-0.73273 0.276005,0 1.592623,-0.78366 2.925796,-1.74144 2.477241,-1.77972 3.322041,-1.72603 1.303931,0.0828 -1.963255,1.75972 -5.918826,3.64974 -7.638406,3.64974 -2.223387,0 -1.790792,1.15192 0.690914,1.83974 1.978367,0.5483 3.076309,0.41165 5.145925,-0.64045 z m 5.594602,-0.82593 c 0.16501,-0.61602 0.29622,-1.90405 0.29139,-2.8623 l -0.009,-1.74229 -1.2024,2.45499 c -0.6613,1.35024 -1.08908,2.63828 -0.95063,2.86229 0.49442,0.79999 1.57541,0.38809 1.87039,-0.71269 z m 1.96144,-64.946078 c -0.59773,-3.842094 -2.05673,-6.417368 -4.62745,-8.167815 -0.9544,-0.649884 -3.173533,-2.247887 -4.931419,-3.551128 -1.757885,-1.30324 -3.279258,-2.286412 -3.380835,-2.184835 -0.101598,0.101598 0.605534,1.833556 1.571323,3.848857 0.965808,2.015304 1.756023,3.923551 1.756023,4.240573 0,0.88342 4.317328,6.244317 5.825608,7.233737 0.73548,0.482466 1.65087,1.475767 2.03417,2.207313 0.63662,1.215014 0.76529,1.261699 1.48734,0.539654 0.67694,-0.676941 0.71501,-1.275234 0.26524,-4.166356 z M 82.910692,79.812483 c 1.195906,-0.848369 3.462395,-1.943072 5.036673,-2.432656 3.259483,-1.013672 3.585703,-1.80893 1.67403,-4.080837 -0.653567,-0.776705 -2.024407,-2.933302 -3.046318,-4.792445 -1.637757,-2.979566 -1.832202,-3.691589 -1.640222,-6.006524 0.204661,-2.468009 0.153525,-2.613988 -0.849518,-2.422253 -0.587002,0.112133 -1.86189,0.93198 -2.833077,1.821722 -2.812968,2.576998 -5.356535,3.708993 -7.051749,3.138321 -0.954613,-0.321347 -1.53219,-0.309212 -1.745958,0.03669 -0.175723,0.284301 -1.170298,1.193065 -2.210233,2.019496 -3.814711,3.03155 -10.050337,2.418828 -14.406461,-1.41558 -1.173367,-1.032842 -2.558429,-1.96025 -3.077888,-2.060906 -1.720992,-0.333501 -1.489766,-1.427921 0.300461,-1.422146 1.238576,0.0037 2.164179,0.487043 3.650462,1.905013 4.061569,3.874857 10.04072,4.303746 13.384416,0.96005 1.756531,-1.756531 1.421902,-2.085704 -2.575305,-2.533181 -3.408473,-0.381572 -7.18896,-2.431717 -10.333508,-5.603808 -3.470898,-3.501304 -4.317594,-6.160614 -4.587144,-14.407044 -0.299973,-9.176792 0.763687,-14.785656 4.733181,-24.958967 1.003717,-2.572393 2.69645,-5.173201 5.065984,-7.7836109 1.066727,-1.175171 1.148814,-1.465309 0.526045,-1.8590983 -1.030096,-0.6513316 -2.826965,-0.5938818 -5.835731,0.18658 -3.143493,0.8154104 -5.546423,2.4007762 -7.000119,4.6183952 -1.157319,1.765521 -1.208607,1.892874 -4.708122,11.692412 -2.142955,6.000809 -3.669483,9.009433 -8.379164,16.514488 -2.10559,3.355305 -5.883198,7.325213 -6.970395,7.325213 -1.031676,0 -11.625181,5.390171 -12.903267,6.56542 -1.261021,1.159556 -2.480312,4.289748 -2.480312,6.367568 0,1.475505 2.395535,5.840114 3.423468,6.237489 0.444278,0.171774 1.866462,0.513967 3.160427,0.760489 3.76751,0.717798 7.022473,2.497414 8.886605,4.858653 1.775552,2.249011 6.797964,5.575698 8.417791,5.575698 1.421337,0 3.666678,-0.945075 4.335974,-1.825033 0.834053,-1.096529 2.493784,-0.55342 4.782174,1.564833 1.041929,0.964473 2.178194,1.753577 2.525015,1.753577 0.346822,0 1.871767,-0.67225 3.388775,-1.493884 4.086404,-2.213302 7.628855,-2.44338 12.312215,-0.799661 2.031311,0.712927 4.047779,1.617043 4.481051,2.00913 1.862888,1.685903 8.106358,3.03648 9.562992,2.068659 0.446818,-0.296849 1.790848,-1.233891 2.986752,-2.082262 z M 78.889046,61.57374 c 1.217523,-0.886504 2.605219,-2.097292 3.083796,-2.690636 0.697611,-0.864926 1.240364,-1.029982 2.737842,-0.832641 1.210788,0.159544 2.848506,-0.12248 4.656005,-0.801993 3.512251,-1.320266 4.721215,-3.191112 4.223616,-6.53605 C 92.786658,45.309944 92.731814,39.968688 93.447506,36.802578 94.340164,32.853427 93.879405,25.880851 92.47579,22.097593 91.595587,19.725096 88.088584,13.534754 86.70591,11.912978 84.299426,9.0903048 78.030065,6.7192475 73.884772,7.0640448 72.37894,7.1892905 70.673941,7.0777733 70.095875,6.816055 c -1.716626,-0.7769846 -5.761226,2.0238303 -8.453839,5.854139 -2.123989,3.021442 -5.060659,9.025618 -5.594719,11.438691 -0.302965,1.368932 -0.792077,3.496992 -1.086915,4.729027 -0.294837,1.232036 -0.668091,5.606007 -0.829424,9.719938 -0.242741,6.189493 -0.147503,7.98162 0.552177,10.388351 1.064922,3.663217 2.800851,6.437726 4.747273,7.587501 0.831457,0.491162 1.51174,1.081118 1.51174,1.311028 0,0.714789 5.099193,2.747305 7.757487,3.092094 1.391875,0.180617 3.183926,0.758889 3.982343,1.285217 2.068414,1.363539 3.674375,1.195811 6.207085,-0.648301 z M 64.503244,47.970948 c -1.137263,-1.24962 -2.067737,-2.481649 -2.067737,-2.737861 0,-0.256192 0.980069,-0.46582 2.177931,-0.46582 1.400584,0 3.48819,-0.591406 5.84905,-1.657023 2.01912,-0.91134 4.68037,-1.933139 5.913885,-2.270666 2.336835,-0.639381 10.464361,-0.918452 12.193233,-0.418654 0.547569,0.158227 1.090622,0.30496 1.206799,0.325919 0.116085,0.02088 -0.250567,0.542093 -0.814955,1.158108 -0.564407,0.616033 -1.504025,2.072062 -2.088055,3.235646 -1.28136,2.552898 -2.538091,2.744465 -4.104581,0.625684 l -1.101552,-1.489933 -1.302883,1.560656 c -1.19455,1.430876 -1.404309,1.507187 -2.522343,0.917624 -0.670689,-0.353668 -1.369692,-0.874012 -1.553356,-1.15632 -0.183627,-0.282288 -0.490053,0.319164 -0.680923,1.33658 -0.250493,1.335224 -0.73857,2.052307 -1.754424,2.577638 -1.312421,0.678684 -1.459605,0.653229 -2.181375,-0.377224 -0.42569,-0.607756 -0.773978,-1.391179 -0.773978,-1.740953 0,-1.164994 -0.885227,-0.656277 -1.925218,1.106349 -0.565385,0.958264 -1.337068,1.74227 -1.714877,1.74227 -0.377808,0 -1.617399,-1.022401 -2.754641,-2.27202 z m 4.386585,-1.564851 c 0.775765,-0.906055 0.619796,-1.291727 -0.35636,-0.881183 -0.479122,0.20152 -1.319156,0.416208 -1.866725,0.477109 -0.681526,0.07582 -0.940635,0.408871 -0.821372,1.055815 0.256156,1.389711 1.229923,1.800255 1.924429,0.811343 0.332898,-0.474023 0.836912,-1.132407 1.120028,-1.463084 z m 4.866724,1.223467 c 0.270341,-0.342232 0.611687,-1.568596 0.758588,-2.725273 l 0.267068,-2.103032 -1.444329,0.746885 c -1.571774,0.812812 -1.590082,0.863647 -1.133198,3.148066 0.333351,1.666713 0.766698,1.927346 1.551871,0.933354 z m 6.021784,-3.134613 c 0.695579,-1.526622 0.754505,-3.212242 0.11232,-3.212242 -1.107874,0 -3.019151,1.025035 -3.019151,1.619187 0,0.792849 1.402015,2.860943 1.939499,2.860943 0.214312,0 0.649616,-0.57054 0.96735,-1.267888 z m 6.429392,-0.807712 c 0.617482,-1.137056 1.033107,-2.156954 0.923626,-2.266434 -0.290621,-0.290603 -4.290727,-0.299654 -4.580033,-0.0095 -0.416866,0.416866 1.362224,4.352645 1.965538,4.348279 0.312505,-0.0018 1.073407,-0.934426 1.690869,-2.071498 z m -22.201124,-6.91591 c -1.904354,-2.044068 -2.032986,-6.545691 -0.243551,-8.522992 0.468286,-0.517441 1.504478,-0.903802 2.423965,-0.903802 2.179511,0 4.285328,2.714606 4.593467,5.921408 0.266898,2.77771 -0.763649,3.980294 -3.754693,4.381469 -1.601953,0.214876 -2.151327,0.0555 -3.019188,-0.876083 z m 4.130091,-1.044225 c 1.244786,-0.567173 1.488109,-1.168681 1.276544,-3.15575 -0.151643,-1.424692 -0.195951,-1.425176 -2.25981,-0.02458 -1.028554,0.697995 -2.062845,1.269081 -2.298417,1.269081 -0.677067,0 -0.500289,0.852528 0.353913,1.706711 0.935234,0.935253 1.272385,0.958808 2.92777,0.204548 z m -2.147338,-4.364898 c 0.956175,-0.781288 1.056661,-1.080711 0.539233,-1.606633 -0.835256,-0.84899 -2.289894,0.01903 -2.50987,1.497692 -0.197059,1.324559 0.439839,1.359767 1.970637,0.108935 z m 10.757673,4.90272 c -1.24469,-0.724968 -1.075382,-1.453509 0.33779,-1.453509 0.664913,0 1.588614,-0.37969 2.052685,-0.84376 0.793149,-0.793132 0.750498,-0.927079 -0.711139,-2.233042 -1.682158,-1.503009 -1.883169,-1.901119 -0.959881,-1.901119 1.03796,0 3.387344,2.630513 3.387344,3.792682 0,0.66527 -0.585045,1.534034 -1.445776,2.146927 -1.659487,1.181662 -1.520676,1.155998 -2.661023,0.491821 z m 9.400736,-1.987437 c -1.071899,-0.84314 -1.311611,-1.443606 -1.311611,-3.285422 0,-1.899027 0.266182,-2.519897 1.691357,-3.945062 1.179425,-1.179437 1.669083,-2.106014 1.617815,-3.061422 -0.154088,-2.872634 0.929816,-1.50058 1.750303,2.215463 1.187647,5.379013 1.173102,7.938892 -0.04891,8.592854 -1.408543,0.753829 -2.22999,0.639157 -3.699039,-0.516411 z m 3.025436,-1.767204 C 89.27424,32.202913 88.900416,31.832034 88.342387,31.686098 87.78434,31.540176 87.117377,30.89563 86.860206,30.253793 l -0.46757,-1.166984 -0.0316,1.328213 c -0.04873,2.048939 0.481473,2.97218 1.610625,2.804883 0.559742,-0.08296 1.100406,-0.402244 1.201476,-0.70962 z m 0.640887,-2.387177 c 0,-0.114503 -0.136026,-0.562516 -0.302155,-0.995585 -0.42682,-1.112268 -1.191221,-0.97868 -1.191221,0.208181 0,0.553101 0.331863,0.995585 0.746679,0.995585 0.410676,0 0.746697,-0.0937 0.746697,-0.208181 z M 87.822909,8.9496463 c 0,-2.5092116 -1.051317,-4.0650336 -3.438294,-5.0882068 -3.664364,-1.5707322 -5.913169,-1.6546151 -8.881409,-0.3312874 -1.437009,0.6406609 -2.613048,1.3191174 -2.613405,1.5076814 -3.57e-4,0.188565 1.063379,0.4829851 2.363854,0.6542675 4.233889,0.5576318 4.809133,0.7458354 8.338018,2.7280285 1.916506,1.0765001 3.652548,1.9667695 3.857887,1.9783735 0.205356,0.01166 0.373349,-0.64038 0.373349,-1.4488567 z"
         style="fill:#000000;stroke-width:0.99999988" />
    </g>
  </g>
</svg>
